<?xml version="1.0" encoding="utf-8"?>
<!-- Generator: Adobe Illustrator 19.1.0, SVG Export Plug-In . SVG Version: 6.00 Build 0)  -->
<svg version="1.0" id="Layer_1" xmlns="http://www.w3.org/2000/svg" xmlns:xlink="http://www.w3.org/1999/xlink" x="0px" y="0px"
	 viewBox="0 0 185 129" style="enable-background:new 0 0 185 129;" xml:space="preserve">
<style type="text/css">
	.st0{fill:none;stroke:#414042;stroke-linecap:round;stroke-linejoin:round;}
	.st1{fill:#939598;stroke:#414042;stroke-miterlimit:10;}
	.st2{fill:none;stroke:#414042;stroke-linecap:round;stroke-linejoin:round;stroke-miterlimit:10;}
	.st3{fill:#414042;}
	.st4{fill:#71B9E6;}
	.st5{fill:none;stroke:#71B9E6;stroke-miterlimit:10;}
	.st6{fill:#FFFFFF;}
	.st7{fill:#010101;}
</style>
<g>
	<g>
		<path class="st0" d="M14.2,42.7c0,4.8,1.6,10,1.6,10l4.5,0l0,3.1c0,0-2.6,0.6-4.4,1.2c-1.8,0.6-2.5,1.7-1.7,4.7
			c1.3,4.6,1.7,13-0.5,18.9c-2,7.7-0.2,13.7,1.6,17.9c1.8,4.2,7.5,4.4,7.5,4.4s10.9,0.3,17,0.3c6.1,0,17.7-0.3,17.7-0.3
			s5.7-0.2,7.5-4.4c1.8-4.2,3.6-10.3,1.6-17.9c-2.1-5.9-1.7-14.3-0.5-18.9c0.8-2.9,0.1-4.1-1.7-4.7c-1.8-0.6-4.4-1.2-4.4-1.2l0-3.1
			l4.5,0c0,0,1.6-5.1,1.6-10"/>
		<path class="st0" d="M57.7,32.5c0,0-4.9-4.3-11.7-9.1c-2.3-1.7-1.9-5.1-0.7-9.1c1.1-3.8-2-5.5-5.1-5.5c-3.1,0-6.2,1.8-5.1,5.6
			c1.2,4,1.6,7.5-0.7,9.1c-6.8,4.9-11.7,9.1-11.7,9.1"/>
		<path class="st1" d="M56.5,114.5c1,0,1.4-1,1.4-1s1.9,0,3,0c1.1,0,1.7-0.7,2.4-2.1C72,94.7,69,79.7,68.7,78.2
			c-0.2-1.3-0.9-1.2-0.9-1.2c-1.7,0.2-5.8,0.9-7.2,1.5c-1.5,0.6-3.9,1.4-5.2,4.9c-2.7,7-5.2,8.1-15.1,8.1c-9.9,0-12.4-1.2-15.1-8.1
			c-1.4-3.5-3.8-4.3-5.3-4.9c-1.5-0.6-5.6-1.3-7.2-1.5c0,0-0.7-0.1-0.9,1.2c-0.2,1.5-3.2,16.4,5.4,33.1c0.7,1.4,1.4,2.1,2.4,2.1
			c1.1,0,3,0,3,0s0.4,1,1.4,1C25,114.5,55.5,114.5,56.5,114.5"/>
		<path class="st2" d="M17.2,111.4l46.1,0 M56.5,114.5c1,0,1.4-1,1.4-1s1.9,0,3,0c1.1,0,1.7-0.7,2.4-2.1C72,94.7,69,79.7,68.7,78.2
			c-0.2-1.3-0.9-1.2-0.9-1.2c-1.7,0.2-5.8,0.9-7.2,1.5c-1.5,0.6-3.9,1.4-5.2,4.9c-2.7,7-5.2,8.1-15.1,8.1c-9.9,0-12.4-1.2-15.1-8.1
			c-1.4-3.5-3.8-4.3-5.3-4.9c-1.5-0.6-5.6-1.3-7.2-1.5c0,0-0.7-0.1-0.9,1.2c-0.2,1.5-3.2,16.4,5.4,33.1c0.7,1.4,1.4,2.1,2.4,2.1
			c1.1,0,3,0,3,0s0.4,1,1.4,1C25,114.5,55.5,114.5,56.5,114.5z"/>
		<path class="st3" d="M34,99.5c-0.4,0-0.8,0.6-0.9,1c-0.3,0.5-0.4,1-0.5,1.5c-0.2,1.1,0,2.4,0.6,3.3c0.2,0.3,0.4,0.8,0.8,0.8
			c0.2,0,0.4-0.1,0.4-0.3c0.1-0.2,0-0.4-0.1-0.6c-0.5-1-0.6-2.1-0.5-3.1c0.1-0.6,0.2-1.1,0.5-1.7c0.1-0.2,0.3-0.4,0.2-0.6
			C34.4,99.7,34.2,99.5,34,99.5"/>
		<path class="st3" d="M46,99.9c0,0.2,0.1,0.4,0.2,0.6c0.2,0.5,0.4,1.1,0.5,1.7c0.1,1.1-0.1,2.2-0.5,3.1c-0.1,0.2-0.2,0.4-0.1,0.6
			c0.1,0.2,0.2,0.3,0.4,0.3c0.4,0,0.6-0.6,0.8-0.8c0.6-1,0.8-2.2,0.6-3.3c-0.1-0.5-0.3-1-0.5-1.5c-0.2-0.3-0.5-1-1-1
			C46.2,99.5,46.1,99.7,46,99.9"/>
		<path class="st3" d="M41.7,101.2c0.6-0.2,0.9-0.8,0.8-1.3c-0.2-0.6-0.8-0.9-1.3-0.8c-0.6,0.1-0.9,0.8-0.8,1.3
			C40.5,101,41.1,101.4,41.7,101.2"/>
		<path class="st3" d="M39.9,100.4c0.2-0.6-0.2-1.2-0.8-1.3c-0.6-0.2-1.2,0.2-1.3,0.8c-0.2,0.6,0.2,1.2,0.8,1.3
			C39.2,101.4,39.8,101,39.9,100.4"/>
		<path class="st3" d="M43.4,101.2L43.4,101.2c-0.2-0.2-0.5-0.3-0.8-0.3c-0.3,0.1-0.2,0.4-0.9,0.6c-0.3,0.1-0.7,0-0.9-0.1
			c-0.3,0.1-0.6,0.6-0.7,0.9c-0.1-0.3-0.4-0.8-0.7-0.9c-0.3,0.2-0.6,0.2-0.9,0.1c-0.6-0.2-0.6-0.5-0.9-0.6c-0.3-0.1-0.5,0.1-0.8,0.3
			c-0.2,0.1-0.3,0.3-0.4,0.6c-0.1,0.2-0.2,0.5-0.2,0.9c0,0.4,0.1,0.8,0.3,1.1c0.4,0.9,1.3,1.8,2,2.4c0,0,0,0,0,0
			c0.4,0.3,0.9,0.5,1.5,0.5l0,0c0.6,0,1.1-0.2,1.5-0.5c0,0,0,0,0,0c0.8-0.6,1.6-1.5,2.1-2.4c0.2-0.3,0.3-0.7,0.3-1.1
			C43.9,102,43.7,101.5,43.4,101.2 M41,105.1c-0.1,0.2-0.4,0.3-0.6,0.4c-0.5,0.1-1,0-1.3-0.4c-0.1-0.1-0.1-0.1-0.2-0.2
			c-0.2-0.5-0.2-1,0.1-1.3c0.1-0.2,0.4-0.1,0.5,0.1l0.1,0.3c0,0.1,0.1,0.1,0.1,0.1c0.1,0,0.2-0.1,0.1-0.2l-0.3-0.8
			c-0.1-0.2,0-0.3,0.2-0.4c0.1-0.1,0.3,0,0.4,0.2c0,0,0.1,0.2,0.1,0.2l0.2,0.6c0.2,0.4,0.5,0.6,0.9,0.6
			C41.4,104.6,41.2,104.9,41,105.1 M41.4,104c-0.4,0-0.8-0.4-0.8-0.8c0-0.4,0.4-0.8,0.8-0.8c0.4,0,0.8,0.4,0.8,0.8
			C42.2,103.7,41.9,104,41.4,104"/>
		<path class="st3" d="M41,104.7c-0.1,0.2-0.3,0.3-0.6,0.4c-0.5,0.1-1,0-1.3-0.4c-0.1-0.1-0.1-0.1-0.2-0.2c-0.2-0.4-0.2-1,0.1-1.3
			c0.1-0.2,0.4-0.1,0.5,0.1l0.1,0.3c0,0.1,0.1,0.1,0.1,0.1c0.1,0,0.2-0.1,0.1-0.2l-0.3-0.8c-0.1-0.1,0-0.3,0.2-0.4
			c0.1-0.1,0.3,0,0.4,0.2c0,0,0.1,0.2,0.1,0.2l0.2,0.6c0.2,0.4,0.5,0.6,0.9,0.6C41.3,104.1,41.2,104.4,41,104.7z M41.4,103.6
			c-0.4,0-0.8-0.4-0.8-0.8c0-0.4,0.4-0.8,0.8-0.8c0.4,0,0.8,0.4,0.8,0.8C42.2,103.2,41.9,103.6,41.4,103.6z"/>
		<path class="st0" d="M68.7,78.2c-0.2-1.3-0.9-1.2-0.9-1.2c-0.5,0.1-1.2,0.2-1.9,0.3c-1.1-5.5-0.7-11.9,0.4-15.7
			c0.8-2.9,0.1-4.1-1.7-4.7c-1.8-0.6-4.4-1.2-4.4-1.2l0-3.1l4.5,0c0,0,1.6-5.1,1.6-10c0-4.9-5.8-10.2-5.8-10.2l-2.8,0
			c0,0-4.9-4.3-11.7-9.1c-2.3-1.7-1.9-5.1-0.7-9.1c1.1-3.8-2-5.5-5.1-5.5c-3.1,0-6.2,1.8-5.1,5.6c1.2,4,1.6,7.5-0.7,9.1
			c-6.8,4.9-11.7,9.1-11.7,9.1l-2.8,0c0,0-5.7,4.2-5.7,10.2c0,4.8,1.6,10,1.6,10l4.5,0l0,3.1c0,0-2.6,0.6-4.4,1.2
			c-1.8,0.6-2.5,1.7-1.7,4.7c1,3.8,1.5,10.2,0.4,15.7c-0.8-0.1-1.5-0.2-2-0.3c0,0-0.7-0.1-0.9,1.2c-0.2,1.5-3.2,16.4,5.4,33.1
			c0.7,1.4,1.4,2.1,2.4,2.1c1.1,0,3,0,3,0s0.4,1,1.4,1c1,0,31.5,0,32.5,0c1,0,1.4-1,1.4-1s1.9,0,3,0c1.1,0,1.7-0.7,2.4-2.1
			C72,94.7,69,79.7,68.7,78.2z"/>
	</g>
	<g>
		<path class="st0" d="M114.7,43.2c0,4.8,1.6,10,1.6,10l4.5,0l0,3.1c0,0-2.6,0.6-4.4,1.2c-1.8,0.6-2.5,1.7-1.7,4.7
			c1.3,4.6,1.7,13-0.5,18.9c-2,7.7-0.2,13.7,1.6,17.9c1.8,4.2,7.5,4.4,7.5,4.4s10.9,0.3,17,0.3c6.1,0,17.7-0.3,17.7-0.3
			s5.7-0.2,7.5-4.4c1.8-4.2,3.6-10.3,1.6-17.9c-2.1-5.9-1.7-14.3-0.5-18.9c0.8-2.9,0.1-4.1-1.7-4.7c-1.8-0.6-4.4-1.2-4.4-1.2l0-3.1
			l4.5,0c0,0,1.6-5.1,1.6-10"/>
		<path class="st0" d="M158.2,33c0,0-4.9-4.3-11.7-9.1c-2.3-1.7-1.9-5.1-0.7-9.1c1.1-3.8-2-5.5-5.1-5.5c-3.1,0-6.2,1.8-5.1,5.6
			c1.2,4,1.6,7.5-0.7,9.1c-6.8,4.9-11.7,9.1-11.7,9.1"/>
		<path class="st1" d="M157,115c1,0,1.4-1,1.4-1s1.9,0,3,0c1.1,0,1.7-0.7,2.4-2.1c8.6-16.7,5.6-31.7,5.4-33.1
			c-0.2-1.3-0.9-1.2-0.9-1.2c-1.7,0.2-5.8,0.9-7.2,1.5c-1.5,0.6-3.9,1.4-5.2,4.9c-2.7,7-5.2,8.1-15.1,8.1c-9.9,0-12.4-1.2-15.1-8.1
			c-1.4-3.5-3.8-4.3-5.3-4.9c-1.5-0.6-5.6-1.3-7.2-1.5c0,0-0.7-0.1-0.9,1.2c-0.2,1.5-3.2,16.4,5.4,33.1c0.7,1.4,1.4,2.1,2.4,2.1
			c1.1,0,3,0,3,0s0.4,1,1.4,1C125.5,115,156,115,157,115"/>
		<path class="st2" d="M117.7,111.9l46.1,0 M157,115c1,0,1.4-1,1.4-1s1.9,0,3,0c1.1,0,1.7-0.7,2.4-2.1c8.6-16.7,5.6-31.7,5.4-33.1
			c-0.2-1.3-0.9-1.2-0.9-1.2c-1.7,0.2-5.8,0.9-7.2,1.5c-1.5,0.6-3.9,1.4-5.2,4.9c-2.7,7-5.2,8.1-15.1,8.1c-9.9,0-12.4-1.2-15.1-8.1
			c-1.4-3.5-3.8-4.3-5.3-4.9c-1.5-0.6-5.6-1.3-7.2-1.5c0,0-0.7-0.1-0.9,1.2c-0.2,1.5-3.2,16.4,5.4,33.1c0.7,1.4,1.4,2.1,2.4,2.1
			c1.1,0,3,0,3,0s0.4,1,1.4,1C125.5,115,156,115,157,115z"/>
		<path class="st4" d="M134.5,100c-0.4,0-0.8,0.6-0.9,1c-0.3,0.5-0.4,1-0.5,1.5c-0.2,1.1,0,2.4,0.6,3.3c0.2,0.3,0.4,0.8,0.8,0.8
			c0.2,0,0.4-0.1,0.4-0.3c0.1-0.2,0-0.4-0.1-0.6c-0.5-1-0.6-2.1-0.5-3.1c0.1-0.6,0.2-1.1,0.5-1.7c0.1-0.2,0.3-0.4,0.2-0.6
			C134.9,100.2,134.7,100,134.5,100"/>
		<path class="st4" d="M146.5,100.4c0,0.2,0.1,0.4,0.2,0.6c0.2,0.5,0.4,1.1,0.5,1.7c0.1,1.1-0.1,2.2-0.5,3.1
			c-0.1,0.2-0.2,0.4-0.1,0.6c0.1,0.2,0.2,0.3,0.4,0.3c0.4,0,0.6-0.6,0.8-0.8c0.6-1,0.8-2.2,0.6-3.3c-0.1-0.5-0.3-1-0.5-1.5
			c-0.2-0.3-0.5-1-1-1C146.7,100,146.6,100.2,146.5,100.4"/>
		<path class="st3" d="M142.2,101.7c0.6-0.2,0.9-0.8,0.8-1.3c-0.2-0.6-0.8-0.9-1.3-0.8c-0.6,0.1-0.9,0.8-0.8,1.3
			C141,101.5,141.6,101.9,142.2,101.7"/>
		<path class="st3" d="M140.4,100.9c0.2-0.6-0.2-1.2-0.8-1.3c-0.6-0.2-1.2,0.2-1.3,0.8c-0.2,0.6,0.2,1.2,0.8,1.3
			C139.7,101.9,140.3,101.5,140.4,100.9"/>
		<path class="st3" d="M143.9,101.7L143.9,101.7c-0.2-0.2-0.5-0.3-0.8-0.3c-0.3,0.1-0.2,0.4-0.9,0.6c-0.3,0.1-0.7,0-0.9-0.1
			c-0.3,0.1-0.6,0.6-0.7,0.9c-0.1-0.3-0.4-0.8-0.7-0.9c-0.3,0.2-0.6,0.2-0.9,0.1c-0.6-0.2-0.6-0.5-0.9-0.6c-0.3-0.1-0.5,0.1-0.8,0.3
			c-0.2,0.1-0.3,0.3-0.4,0.6c-0.1,0.2-0.2,0.5-0.2,0.9c0,0.4,0.1,0.8,0.3,1.1c0.4,0.9,1.3,1.8,2,2.4c0,0,0,0,0,0
			c0.4,0.3,0.9,0.5,1.5,0.5l0,0c0.6,0,1.1-0.2,1.5-0.5c0,0,0,0,0,0c0.8-0.6,1.6-1.5,2.1-2.4c0.2-0.3,0.3-0.7,0.3-1.1
			C144.4,102.5,144.2,102,143.9,101.7 M141.5,105.6c-0.1,0.2-0.4,0.3-0.6,0.4c-0.5,0.1-1,0-1.3-0.4c-0.1-0.1-0.1-0.1-0.2-0.2
			c-0.2-0.5-0.2-1,0.1-1.3c0.1-0.2,0.4-0.1,0.5,0.1l0.1,0.3c0,0.1,0.1,0.1,0.1,0.1c0.1,0,0.2-0.1,0.1-0.2l-0.3-0.8
			c-0.1-0.2,0-0.3,0.2-0.4c0.1-0.1,0.3,0,0.4,0.2c0,0,0.1,0.2,0.1,0.2l0.2,0.6c0.2,0.4,0.5,0.6,0.9,0.6
			C141.9,105.1,141.7,105.4,141.5,105.6 M141.9,104.5c-0.4,0-0.8-0.4-0.8-0.8c0-0.4,0.4-0.8,0.8-0.8c0.4,0,0.8,0.4,0.8,0.8
			C142.7,104.2,142.4,104.5,141.9,104.5"/>
		<path class="st3" d="M141.5,105.2c-0.1,0.2-0.3,0.3-0.6,0.4c-0.5,0.1-1,0-1.3-0.4c-0.1-0.1-0.1-0.1-0.2-0.2
			c-0.2-0.4-0.2-1,0.1-1.3c0.1-0.2,0.4-0.1,0.5,0.1l0.1,0.3c0,0.1,0.1,0.1,0.1,0.1c0.1,0,0.2-0.1,0.1-0.2l-0.3-0.8
			c-0.1-0.1,0-0.3,0.2-0.4c0.1-0.1,0.3,0,0.4,0.2c0,0,0.1,0.2,0.1,0.2l0.2,0.6c0.2,0.4,0.5,0.6,0.9,0.6
			C141.8,104.6,141.7,104.9,141.5,105.2z M141.9,104.1c-0.4,0-0.8-0.4-0.8-0.8c0-0.4,0.4-0.8,0.8-0.8c0.4,0,0.8,0.4,0.8,0.8
			C142.7,103.7,142.4,104.1,141.9,104.1z"/>
		<path class="st0" d="M169.2,78.7c-0.2-1.3-0.9-1.2-0.9-1.2c-0.5,0.1-1.2,0.2-1.9,0.3c-1.1-5.5-0.7-11.9,0.4-15.7
			c0.8-2.9,0.1-4.1-1.7-4.7c-1.8-0.6-4.4-1.2-4.4-1.2l0-3.1l4.5,0c0,0,1.6-5.1,1.6-10c0-4.9-5.8-10.2-5.8-10.2l-2.8,0
			c0,0-4.9-4.3-11.7-9.1c-2.3-1.7-1.9-5.1-0.7-9.1c1.1-3.8-2-5.5-5.1-5.5c-3.1,0-6.2,1.8-5.1,5.6c1.2,4,1.6,7.5-0.7,9.1
			c-6.8,4.9-11.7,9.1-11.7,9.1l-2.8,0c0,0-5.7,4.2-5.7,10.2c0,4.8,1.6,10,1.6,10l4.5,0l0,3.1c0,0-2.6,0.6-4.4,1.2
			c-1.8,0.6-2.5,1.7-1.7,4.7c1,3.8,1.5,10.2,0.4,15.7c-0.8-0.1-1.5-0.2-2-0.3c0,0-0.7-0.1-0.9,1.2c-0.2,1.5-3.2,16.4,5.4,33.1
			c0.7,1.4,1.4,2.1,2.4,2.1c1.1,0,3,0,3,0s0.4,1,1.4,1c1,0,31.5,0,32.5,0c1,0,1.4-1,1.4-1s1.9,0,3,0c1.1,0,1.7-0.7,2.4-2.1
			C172.5,95.2,169.5,80.2,169.2,78.7z"/>
		<path class="st5" d="M140.8,91.5c-0.2,0-0.3,0.1-0.4,0.2c-0.8,1.4-2.4,3.7-3.3,4c-0.1,0-0.3,0.1-0.6,0.1c-1.8,0-5.4-1.1-5.5-1.1
			c0,0-0.1,0-0.1,0c-0.1,0-0.3,0.1-0.4,0.2c-0.1,0.1-0.1,0.3-0.1,0.5c0.9,1.8,1.6,4,1.3,4.5c-0.3,0.5-2.9,1.7-5.1,2.6
			c-0.2,0.1-0.3,0.2-0.3,0.4c0,0.2,0.1,0.4,0.3,0.4c2.2,0.8,4.9,2,5.1,2.5c0.3,0.5-0.5,2.8-1.3,4.5c-0.1,0.2-0.1,0.4,0.1,0.5
			c0.1,0.1,0.2,0.2,0.4,0.2c0,0,0.1,0,0.1,0c0,0,3.7-1.1,5.5-1.1c0.3,0,0.5,0,0.6,0.1c0.8,0.3,2.5,2.6,3.3,4
			c0.1,0.1,0.2,0.2,0.4,0.2c0.2,0,0.3-0.1,0.4-0.2c0.8-1.4,2.4-3.7,3.3-4c0.1,0,0.3-0.1,0.6-0.1c1.8,0,5.4,1.1,5.5,1.1
			c0,0,0.1,0,0.1,0c0.1,0,0.3-0.1,0.4-0.2c0.1-0.1,0.1-0.3,0.1-0.5c-0.9-1.8-1.6-4-1.3-4.5c0.3-0.5,2.9-1.7,5.1-2.5
			c0.2-0.1,0.3-0.2,0.3-0.4c0-0.2-0.1-0.4-0.3-0.4c-2.2-0.8-4.8-2-5.1-2.6c-0.3-0.5,0.5-2.8,1.3-4.5c0.1-0.2,0.1-0.4-0.1-0.5
			c-0.1-0.1-0.2-0.2-0.4-0.2c0,0-0.1,0-0.1,0c0,0-3.7,1.1-5.5,1.1c-0.3,0-0.5,0-0.6-0.1c-0.8-0.3-2.5-2.6-3.3-4
			C141.1,91.5,141,91.5,140.8,91.5"/>
	</g>
	<g>
		<g>
			<g>
				<polygon class="st3" points="74.1,99.8 96.7,99.8 96.7,102.4 108.1,95.8 96.7,89.2 96.7,91.9 74.1,91.9 				"/>
			</g>
		</g>
	</g>
	<path class="st6" d="M40.8,102.2c-1.7,0.8-2.5,2.8-1.7,4.5l3.7,8.3c-0.8-0.5-1.6-0.7-2.3-0.6c-1,0.2-1.7,0.8-2.1,1.4
		c-0.4,0.8-0.8,1.5-0.7,2.4c0.1,0.9,0.7,1.6,1.5,2.4c3.7,3.5,7.8,6.7,11.9,8.6c0.3,0.1,0.6,0.1,0.9,0l9.2-4.1
		c0.2-0.1,0.4-0.3,0.5-0.5c0.7-1.3,0.9-2.9,0.9-4.7c0-1.8-0.3-3.8-0.8-5.6c-0.5-1.8-1.2-3.5-2.3-4.7c-1-1.2-2.6-2-4.3-1.5
		c-0.3,0.1-0.5,0.3-0.8,0.4c-0.4-0.3-0.8-0.5-1.2-0.6c-0.8-0.2-1.4,0-1.9,0.2c-0.4,0.2-0.6,0.4-0.9,0.7c-0.2-0.1-0.4-0.2-0.6-0.3
		c-0.8-0.2-1.4,0-1.9,0.2c-0.2,0.1-0.4,0.2-0.6,0.4l-2.3-5.2C44.5,102.2,42.5,101.4,40.8,102.2L40.8,102.2z"/>
	<g transform="translate(0,-952.36218)">
		<path class="st7" d="M40.5,1054.1c-1.7,0.8-2.5,2.8-1.7,4.5l3.7,8.3c-0.8-0.5-1.6-0.7-2.3-0.6c-1,0.2-1.7,0.8-2.1,1.4
			c-0.4,0.8-0.8,1.5-0.7,2.4c0.1,0.9,0.7,1.6,1.5,2.4c3.7,3.5,7.8,6.7,11.9,8.6c0.3,0.1,0.6,0.1,0.9,0l9.2-4.1
			c0.2-0.1,0.4-0.3,0.5-0.5c0.7-1.3,0.9-2.9,0.9-4.7c0-1.8-0.3-3.8-0.8-5.6c-0.5-1.8-1.2-3.5-2.3-4.7c-1-1.2-2.6-2-4.3-1.5
			c-0.3,0.1-0.5,0.3-0.8,0.4c-0.4-0.3-0.8-0.5-1.2-0.6c-0.8-0.2-1.4,0-1.9,0.2c-0.4,0.2-0.6,0.4-0.9,0.7c-0.2-0.1-0.4-0.2-0.6-0.3
			c-0.8-0.2-1.4,0-1.9,0.2c-0.2,0.1-0.4,0.2-0.6,0.4l-2.3-5.2C44.2,1054.1,42.2,1053.3,40.5,1054.1L40.5,1054.1z M41.4,1056.1
			c0.6-0.3,1.2,0,1.5,0.6l3.2,7.2c0.2,0.5,0.8,0.7,1.3,0.6s0.9-0.6,0.9-1.1c0.2-0.7,0.5-0.8,1.1-0.9c0.2,0,0.3,0,0.5,0.4
			c0.2,0.5,0.7,0.7,1.2,0.7s0.9-0.6,0.9-1.1c0-0.7,0.2-0.7,0.8-0.7c0.2,0,0.3,0,0.5,0.4c0.2,0.4,0.6,0.7,1,0.7c0.4,0,0.8-0.3,1-0.7
			c0,0,0.4-0.3,0.6-0.3c0.7-0.2,1.2,0,1.8,0.8c0.7,0.8,1.4,2.3,1.8,3.9c0.4,1.6,0.7,3.4,0.7,5c0,1.4-0.2,2.6-0.6,3.3l-8.3,3.7
			c-3.1-1.7-10.6-6.7-11.7-9.1c0.1-0.6,0.4-1.1,0.8-1.2c0.7,0,0.9,0.3,1.5,0.7l2.6,2.1c0.4,0.3,1,0.3,1.4,0c0.4-0.3,0.5-0.9,0.3-1.4
			l-5.5-12.3C40.6,1057,40.8,1056.4,41.4,1056.1L41.4,1056.1z"/>
	</g>
</g>
</svg>
