<?xml version="1.0" encoding="utf-8"?>
<!-- Generator: Adobe Illustrator 19.1.0, SVG Export Plug-In . SVG Version: 6.00 Build 0)  -->
<svg version="1.0" id="Layer_1" xmlns="http://www.w3.org/2000/svg" xmlns:xlink="http://www.w3.org/1999/xlink" x="0px" y="0px"
	 viewBox="0 0 127.2 106.9" style="enable-background:new 0 0 127.2 106.9;" xml:space="preserve">
<style type="text/css">
	.st0{fill:#414042;}
	.st1{fill:none;stroke:#414042;stroke-linecap:round;stroke-linejoin:round;}
	.st2{fill:#939598;stroke:#414042;stroke-miterlimit:10;}
	.st3{fill:none;stroke:#414042;stroke-linecap:round;stroke-linejoin:round;stroke-miterlimit:10;}
	.st4{fill:#FFFFFF;}
	.st5{fill:none;stroke:#FFFFFF;stroke-miterlimit:10;}
	.st6{clip-path:url(#SVGID_2_);}
	.st7{clip-path:url(#SVGID_4_);fill:#8DC63F;}
</style>
<g>
	<path class="st0" d="M126,100.5c0,2.9-2.3,5.3-5.3,5.3H88.1c-2.9,0-5.3-2.3-5.3-5.3V21.1c0-2.9,2.3-5.3,5.3-5.3h32.7
		c2.9,0,5.3,2.3,5.3,5.3V100.5z M120.8,14.7H88.1c-3.5,0-6.4,2.9-6.4,6.4v79.3c0,3.5,2.9,6.4,6.4,6.4h32.7c3.5,0,6.4-2.9,6.4-6.4
		V21.1C127.2,17.6,124.3,14.7,120.8,14.7z"/>
	<path class="st0" d="M122.3,92.8H86.6V28.8h35.8V92.8z M86,27.7c-0.3,0-0.5,0.2-0.5,0.5v65c0,0.3,0.2,0.5,0.5,0.5h36.8
		c0.3,0,0.5-0.2,0.5-0.5v-65c0-0.3-0.2-0.5-0.5-0.5H86z"/>
	<path class="st0" d="M104.4,101.3c-0.9,0-1.8-0.8-1.8-1.8s0.8-1.8,1.8-1.8c0.9,0,1.8,0.8,1.8,1.8S105.4,101.3,104.4,101.3z
		 M104.4,96.6c-1.6,0-2.9,1.3-2.9,2.9s1.3,2.9,2.9,2.9c1.6,0,2.9-1.3,2.9-2.9S105.9,96.6,104.4,96.6z"/>
	<path class="st0" d="M100.8,21.7h7c0.4,0,0.6-0.2,0.6-0.6c0-0.4-0.2-0.6-0.6-0.6h-7c-0.4,0-0.6,0.2-0.6,0.6
		C100.2,21.5,100.6,21.7,100.8,21.7z"/>
	<g>
		<path class="st1" d="M3.6,34.5c0,4.8,1.6,10,1.6,10l4.5,0l0,3.1c0,0-2.6,0.6-4.4,1.2c-1.8,0.6-2.5,1.7-1.7,4.7
			c1.3,4.6,1.7,13-0.5,18.9C1.2,80,3,86.1,4.8,90.3c1.8,4.2,7.5,4.4,7.5,4.4s10.9,0.3,17,0.3c6.1,0,17.7-0.3,17.7-0.3
			s5.7-0.2,7.5-4.4c1.8-4.2,3.6-10.3,1.6-17.9C54,66.4,54.4,58,55.7,53.4c0.8-2.9,0.1-4.1-1.7-4.7c-1.8-0.6-4.4-1.2-4.4-1.2l0-3.1
			l4.5,0c0,0,1.6-5.1,1.6-10"/>
		<path class="st1" d="M47.1,24.3c0,0-4.9-4.3-11.7-9.1c-2.3-1.7-1.9-5.1-0.7-9.1c1.1-3.8-2-5.5-5.1-5.5c-3.1,0-6.2,1.8-5.1,5.6
			c1.2,4,1.6,7.5-0.7,9.1C17,20,12.1,24.3,12.1,24.3"/>
		<path class="st2" d="M45.9,106.3c1,0,1.4-1,1.4-1s1.9,0,3,0c1.1,0,1.7-0.7,2.4-2.1c8.6-16.7,5.6-31.7,5.4-33.1
			c-0.2-1.3-0.9-1.2-0.9-1.2c-1.7,0.2-5.8,0.9-7.2,1.5c-1.5,0.6-3.9,1.4-5.2,4.9c-2.7,7-5.2,8.1-15.1,8.1c-9.9,0-12.4-1.2-15.1-8.1
			c-1.4-3.5-3.8-4.3-5.3-4.9c-1.5-0.6-5.6-1.3-7.2-1.5c0,0-0.7-0.1-0.9,1.2C1,71.5-2,86.5,6.6,103.2c0.7,1.4,1.4,2.1,2.4,2.1
			c1.1,0,3,0,3,0s0.4,1,1.4,1C14.5,106.3,44.9,106.3,45.9,106.3"/>
		<path class="st3" d="M6.6,103.2l46.1,0 M45.9,106.3c1,0,1.4-1,1.4-1s1.9,0,3,0c1.1,0,1.7-0.7,2.4-2.1c8.6-16.7,5.6-31.7,5.4-33.1
			c-0.2-1.3-0.9-1.2-0.9-1.2c-1.7,0.2-5.8,0.9-7.2,1.5c-1.5,0.6-3.9,1.4-5.2,4.9c-2.7,7-5.2,8.1-15.1,8.1c-9.9,0-12.4-1.2-15.1-8.1
			c-1.4-3.5-3.8-4.3-5.3-4.9c-1.5-0.6-5.6-1.3-7.2-1.5c0,0-0.7-0.1-0.9,1.2C1,71.5-2,86.5,6.6,103.2c0.7,1.4,1.4,2.1,2.4,2.1
			c1.1,0,3,0,3,0s0.4,1,1.4,1C14.5,106.3,44.9,106.3,45.9,106.3z"/>
		<path class="st4" d="M23.4,91.3c-0.4,0-0.8,0.6-0.9,1c-0.3,0.5-0.4,1-0.5,1.5c-0.2,1.1,0,2.4,0.6,3.3c0.2,0.3,0.4,0.8,0.8,0.8
			c0.2,0,0.4-0.1,0.4-0.3c0.1-0.2,0-0.4-0.1-0.6c-0.5-1-0.6-2.1-0.5-3.1c0.1-0.6,0.2-1.1,0.5-1.7c0.1-0.2,0.3-0.4,0.2-0.6
			C23.8,91.5,23.6,91.3,23.4,91.3"/>
		<path class="st4" d="M35.5,91.7c0,0.2,0.1,0.4,0.2,0.6c0.2,0.5,0.4,1.1,0.5,1.7c0.1,1.1-0.1,2.2-0.5,3.1c-0.1,0.2-0.2,0.4-0.1,0.6
			c0.1,0.2,0.2,0.3,0.4,0.3c0.4,0,0.6-0.6,0.8-0.8c0.6-1,0.8-2.2,0.6-3.3c-0.1-0.5-0.3-1-0.5-1.5c-0.2-0.3-0.5-1-1-1
			C35.6,91.3,35.5,91.5,35.5,91.7"/>
		<path class="st0" d="M31.1,93c0.6-0.2,0.9-0.8,0.8-1.3c-0.2-0.6-0.8-0.9-1.3-0.8c-0.6,0.1-0.9,0.8-0.8,1.3
			C29.9,92.8,30.5,93.2,31.1,93"/>
		<path class="st0" d="M29.3,92.2c0.2-0.6-0.2-1.2-0.8-1.3c-0.6-0.2-1.2,0.2-1.3,0.8c-0.2,0.6,0.2,1.2,0.8,1.3
			C28.6,93.2,29.2,92.8,29.3,92.2"/>
		<path class="st0" d="M32.8,93L32.8,93c-0.2-0.2-0.5-0.3-0.8-0.3c-0.3,0.1-0.2,0.4-0.9,0.6c-0.3,0.1-0.7,0-0.9-0.1
			c-0.3,0.1-0.6,0.6-0.7,0.9c-0.1-0.3-0.4-0.8-0.7-0.9c-0.3,0.2-0.6,0.2-0.9,0.1c-0.6-0.2-0.6-0.5-0.9-0.6c-0.3-0.1-0.5,0.1-0.8,0.3
			c-0.2,0.1-0.3,0.3-0.4,0.6c-0.1,0.2-0.2,0.5-0.2,0.9c0,0.4,0.1,0.8,0.3,1.1c0.4,0.9,1.3,1.8,2,2.4c0,0,0,0,0,0
			c0.4,0.3,0.9,0.5,1.5,0.5l0,0c0.6,0,1.1-0.2,1.5-0.5c0,0,0,0,0,0c0.8-0.6,1.6-1.5,2.1-2.4c0.2-0.3,0.3-0.7,0.3-1.1
			C33.3,93.8,33.1,93.3,32.8,93 M30.4,96.9c-0.1,0.2-0.4,0.3-0.6,0.4c-0.5,0.1-1,0-1.3-0.4c-0.1-0.1-0.1-0.1-0.2-0.2
			c-0.2-0.5-0.2-1,0.1-1.3c0.1-0.2,0.4-0.1,0.5,0.1l0.1,0.3c0,0.1,0.1,0.1,0.1,0.1c0.1,0,0.2-0.1,0.1-0.2L29,94.9
			c-0.1-0.2,0-0.3,0.2-0.4c0.1-0.1,0.3,0,0.4,0.2c0,0,0.1,0.2,0.1,0.2l0.2,0.6c0.2,0.4,0.5,0.6,0.9,0.6
			C30.8,96.4,30.6,96.7,30.4,96.9 M30.8,95.8c-0.4,0-0.8-0.4-0.8-0.8c0-0.4,0.4-0.8,0.8-0.8c0.4,0,0.8,0.4,0.8,0.8
			C31.6,95.5,31.3,95.8,30.8,95.8"/>
		<path class="st0" d="M30.4,96.5c-0.1,0.2-0.3,0.3-0.6,0.4c-0.5,0.1-1,0-1.3-0.4c-0.1-0.1-0.1-0.1-0.2-0.2c-0.2-0.4-0.2-1,0.1-1.3
			c0.1-0.2,0.4-0.1,0.5,0.1l0.1,0.3c0,0.1,0.1,0.1,0.1,0.1c0.1,0,0.2-0.1,0.1-0.2L29,94.4c-0.1-0.1,0-0.3,0.2-0.4
			c0.1-0.1,0.3,0,0.4,0.2c0,0,0.1,0.2,0.1,0.2l0.2,0.6c0.2,0.4,0.5,0.6,0.9,0.6C30.7,95.9,30.6,96.2,30.4,96.5z M30.8,95.4
			c-0.4,0-0.8-0.4-0.8-0.8c0-0.4,0.4-0.8,0.8-0.8c0.4,0,0.8,0.4,0.8,0.8C31.6,95,31.3,95.4,30.8,95.4z"/>
		<path class="st1" d="M58.1,70c-0.2-1.3-0.9-1.2-0.9-1.2c-0.5,0.1-1.2,0.2-1.9,0.3c-1.1-5.5-0.7-11.9,0.4-15.7
			c0.8-2.9,0.1-4.1-1.7-4.7c-1.8-0.6-4.4-1.2-4.4-1.2l0-3.1l4.5,0c0,0,1.6-5.1,1.6-10c0-4.9-5.8-10.2-5.8-10.2l-2.8,0
			c0,0-4.9-4.3-11.7-9.1c-2.3-1.7-1.9-5.1-0.7-9.1c1.1-3.8-2-5.5-5.1-5.5c-3.1,0-6.2,1.8-5.1,5.6c1.2,4,1.6,7.5-0.7,9.1
			C17,20,12.1,24.3,12.1,24.3l-2.8,0c0,0-5.7,4.2-5.7,10.2c0,4.8,1.6,10,1.6,10l4.5,0l0,3.1c0,0-2.6,0.6-4.4,1.2
			c-1.8,0.6-2.5,1.7-1.7,4.7c1,3.8,1.5,10.2,0.4,15.7c-0.8-0.1-1.5-0.2-2-0.3c0,0-0.7-0.1-0.9,1.2C1,71.5-2,86.5,6.6,103.2
			c0.7,1.4,1.4,2.1,2.4,2.1c1.1,0,3,0,3,0s0.4,1,1.4,1c1,0,31.5,0,32.5,0c1,0,1.4-1,1.4-1s1.9,0,3,0c1.1,0,1.7-0.7,2.4-2.1
			C61.4,86.5,58.4,71.5,58.1,70z"/>
		<path class="st5" d="M29.3,83.2c-0.2,0-0.3,0.1-0.4,0.2c-0.8,1.4-2.4,3.7-3.3,4c-0.1,0-0.3,0.1-0.6,0.1c-1.8,0-5.4-1.1-5.5-1.1
			c0,0-0.1,0-0.1,0c-0.1,0-0.3,0.1-0.4,0.2C19,86.7,19,86.9,19.1,87c0.9,1.8,1.6,4,1.3,4.5c-0.3,0.5-2.9,1.7-5.1,2.6
			c-0.2,0.1-0.3,0.2-0.3,0.4c0,0.2,0.1,0.4,0.3,0.4c2.2,0.8,4.9,2,5.1,2.5c0.3,0.5-0.5,2.8-1.3,4.5c-0.1,0.2-0.1,0.4,0.1,0.5
			c0.1,0.1,0.2,0.2,0.4,0.2c0,0,0.1,0,0.1,0c0,0,3.7-1.1,5.5-1.1c0.3,0,0.5,0,0.6,0.1c0.8,0.3,2.5,2.6,3.3,4
			c0.1,0.1,0.2,0.2,0.4,0.2c0.2,0,0.3-0.1,0.4-0.2c0.8-1.4,2.4-3.7,3.3-4c0.1,0,0.3-0.1,0.6-0.1c1.8,0,5.4,1.1,5.5,1.1
			c0,0,0.1,0,0.1,0c0.1,0,0.3-0.1,0.4-0.2c0.1-0.1,0.1-0.3,0.1-0.5c-0.9-1.8-1.6-4-1.3-4.5c0.3-0.5,2.9-1.7,5.1-2.5
			c0.2-0.1,0.3-0.2,0.3-0.4c0-0.2-0.1-0.4-0.3-0.4c-2.2-0.8-4.8-2-5.1-2.6C38,91,38.7,88.8,39.6,87c0.1-0.2,0.1-0.4-0.1-0.5
			c-0.1-0.1-0.2-0.2-0.4-0.2c0,0-0.1,0-0.1,0c0,0-3.7,1.1-5.5,1.1c-0.3,0-0.5,0-0.6-0.1c-0.8-0.3-2.5-2.6-3.3-4
			C29.7,83.3,29.5,83.2,29.3,83.2"/>
	</g>
	<g>
		<defs>
			<path id="SVGID_1_" d="M102.9,78.1L102.9,78.1c-0.7,0-1.3-0.3-1.7-0.9l-6.5-8.9c-0.7-1-0.5-2.3,0.5-3s2.3-0.5,3,0.5l4.7,6.5
				l11.2-15.5c0.3-0.5,0.8-0.8,1.4-0.9c0.6-0.1,1.1,0.1,1.6,0.4c0.5,0.3,0.8,0.8,0.9,1.4c0.1,0.6-0.1,1.1-0.4,1.6l-13,17.9
				C104.2,77.8,103.6,78.1,102.9,78.1"/>
		</defs>
		<use xlink:href="#SVGID_1_"  style="overflow:visible;fill:#8DC63F;"/>
		<clipPath id="SVGID_2_">
			<use xlink:href="#SVGID_1_"  style="overflow:visible;"/>
		</clipPath>
		<g class="st6">
			<defs>
				<rect id="SVGID_3_" x="17.7" y="-36.6" width="116.9" height="207.8"/>
			</defs>
			<use xlink:href="#SVGID_3_"  style="overflow:visible;fill:#8DC63F;"/>
			<clipPath id="SVGID_4_">
				<use xlink:href="#SVGID_3_"  style="overflow:visible;"/>
			</clipPath>
			<rect x="92.8" y="54.4" class="st7" width="26.8" height="25.3"/>
		</g>
	</g>
</g>
</svg>
