<?xml version="1.0" encoding="utf-8"?>
<!-- Generator: Adobe Illustrator 16.0.0, SVG Export Plug-In . SVG Version: 6.00 Build 0)  -->
<!DOCTYPE svg PUBLIC "-//W3C//DTD SVG 1.1//EN" "http://www.w3.org/Graphics/SVG/1.1/DTD/svg11.dtd">
<svg version="1.1" id="Layer_1" xmlns="http://www.w3.org/2000/svg" xmlns:xlink="http://www.w3.org/1999/xlink" x="0px" y="0px"
	 width="402.68px" height="765.346px" viewBox="107.215 7.577 402.68 765.346"
	 enable-background="new 107.215 7.577 402.68 765.346" xml:space="preserve">
<path d="M434.251,169.801c-37.869,6.402-80.547,10.004-125.699,9.997c-46.441-0.017-90.269-3.835-128.937-10.614
	c-31.023,14.264-46.948,35.194-46.948,61.068c-0.007,26.128,61.188,47.332,176.599,47.365
	c115.42,0.023,175.133-21.146,175.14-47.285C484.423,206.624,467.432,184.94,434.251,169.801z"/>
<path d="M338.142,70.771c1.298-4.003,19.63-63.178-29.701-63.194c-51.054-0.008-32.226,63.403-32.226,63.403l0,0
	c-70.485,14.513-77.153,77.521-77.153,77.521c0,7.565,48.609,13.71,108.585,13.728s108.602-6.113,108.585-13.678
	C416.24,148.55,409.372,84.867,338.142,70.771z"/>
<path d="M505.746,556.35c-7.043-80.135-21.757-159.295-37.393-237.786c-3.523-17.665-5.833-28.961-10.036-46.434
	c0,0-46.617,20.208-149.115,20.257c-102.503-0.049-150.446-20.257-150.446-20.257c-4.204,17.473-6.514,28.769-10.036,46.434
	c-6.218,31.183-12.259,62.471-17.754,93.887c9.748,2.896,29.595,7.147,62.511,7.147c5.536,0,10.028,4.493,10.028,10.029
	c0,5.535-4.493,10.028-10.028,10.028c-32.515,0-53.694-3.957-65.913-7.333c-2.198,13.229-4.276,26.488-6.217,39.765
	c5.543,2.192,26.305,9.115,68.327,9.115c5.536,0,10.029,4.493,10.029,10.026c0,5.536-4.493,10.027-10.029,10.027
	c-37.761,0-60.305-5.334-71.176-8.905c-1.83,13.632-3.45,27.286-4.893,40.976c5.937,2.308,26.7,8.998,68.047,8.998
	c5.535,0,10.028,4.493,10.028,10.028c0,5.536-4.493,10.027-10.028,10.027c-36.592,0-58.845-5.006-70.085-8.56
	c-0.071,0.843-0.176,1.693-0.249,2.535c-1.116,12.628-2.222,25.37-3.016,38.138c1.172,0.139,2.343,0.411,3.441,0.973
	c0.538,0.264,20.666,9.786,69.915,9.786c5.536,0,10.028,4.495,10.028,10.028c0,5.536-4.492,10.029-10.028,10.029
	c-41.789,0-64.967-6.538-74.273-9.981c-0.393,14.755-0.161,29.501,1.292,44.118c8.198,82.639,72.37,106.017,138.292,112.98
	c3.474,0.367,57.177,0.496,61.574,0.496c4.397,0,58.091-0.137,61.564-0.496c65.929-6.964,130.101-30.342,138.293-112.98
	C511.796,625.271,508.756,590.423,505.746,556.35z"/>
</svg>
