<svg id="Layer_1" data-name="Layer 1" xmlns="http://www.w3.org/2000/svg" xmlns:xlink="http://www.w3.org/1999/xlink" viewBox="0 0 16.6 16.07"><defs><style>.cls-1,.cls-19,.cls-2{fill:none;}.cls-2,.cls-4{clip-rule:evenodd;}.cls-22,.cls-3,.cls-4{fill:#1d1d1b;}.cls-5{clip-path:url(#clip-path);}.cls-6{clip-path:url(#clip-path-2);}.cls-7{fill:#fff;}.cls-8{clip-path:url(#clip-path-3);}.cls-9{clip-path:url(#clip-path-5);}.cls-10{clip-path:url(#clip-path-7);}.cls-11{clip-path:url(#clip-path-9);}.cls-12{clip-path:url(#clip-path-11);}.cls-13{clip-path:url(#clip-path-13);}.cls-14{clip-path:url(#clip-path-15);}.cls-15{clip-path:url(#clip-path-17);}.cls-16{clip-path:url(#clip-path-19);}.cls-17{clip-path:url(#clip-path-21);}.cls-18{clip-path:url(#clip-path-23);}.cls-19{stroke:#1d1d1b;stroke-miterlimit:10;}.cls-20{clip-path:url(#clip-path-25);}.cls-21{clip-path:url(#clip-path-26);}.cls-22{fill-rule:evenodd;}.cls-23{clip-path:url(#clip-path-27);}.cls-24{clip-path:url(#clip-path-29);}.cls-25{clip-path:url(#clip-path-31);}.cls-26{clip-path:url(#clip-path-33);}.cls-27{clip-path:url(#clip-path-35);}.cls-28{clip-path:url(#clip-path-37);}.cls-29{clip-path:url(#clip-path-39);}.cls-30{clip-path:url(#clip-path-41);}.cls-31{clip-path:url(#clip-path-43);}.cls-32{clip-path:url(#clip-path-45);}.cls-33{clip-path:url(#clip-path-47);}</style><clipPath id="clip-path"><rect class="cls-1" x="8.29" y="13.17" width="0.38" height="0.96"/></clipPath><clipPath id="clip-path-2"><rect class="cls-1" x="-15.01" y="-130.66" width="209.55" height="372.71"/></clipPath><clipPath id="clip-path-3"><polygon class="cls-2" points="11.36 13.33 10.86 12.48 11.19 12.29 11.69 13.14 11.36 13.33"/></clipPath><clipPath id="clip-path-5"><polygon class="cls-2" points="5.61 13.33 5.28 13.14 5.77 12.29 6.1 12.48 5.61 13.33"/></clipPath><clipPath id="clip-path-7"><rect class="cls-1" x="13.13" y="10.29" width="0.38" height="0.99" transform="translate(-2.65 17) rotate(-60.26)"/></clipPath><clipPath id="clip-path-9"><polygon class="cls-2" points="3.31 11.2 3.13 10.87 3.98 10.38 4.17 10.71 3.31 11.2"/></clipPath><clipPath id="clip-path-11"><rect class="cls-1" x="13.46" y="7.81" width="0.95" height="0.38"/></clipPath><clipPath id="clip-path-13"><rect class="cls-1" x="2.54" y="7.81" width="0.96" height="0.38"/></clipPath><clipPath id="clip-path-15"><polygon class="cls-2" points="12.98 5.67 12.8 5.34 13.65 4.84 13.84 5.18 12.98 5.67"/></clipPath><clipPath id="clip-path-17"><rect class="cls-1" x="3.45" y="4.76" width="0.38" height="0.99" transform="translate(-2.73 5.79) rotate(-60.01)"/></clipPath><clipPath id="clip-path-19"><polygon class="cls-2" points="11.18 3.75 10.85 3.56 11.35 2.72 11.69 2.91 11.18 3.75"/></clipPath><clipPath id="clip-path-21"><polygon class="cls-2" points="5.76 3.75 5.26 2.9 5.61 2.72 6.1 3.57 5.76 3.75"/></clipPath><clipPath id="clip-path-23"><polygon class="cls-2" points="8.29 2.06 8.29 3.02 8.66 3.02 8.67 2.06 8.29 2.06"/></clipPath><clipPath id="clip-path-25"><rect class="cls-3" x="8.29" y="13.17" width="0.38" height="0.96"/></clipPath><clipPath id="clip-path-26"><rect class="cls-3" x="-15.01" y="-130.66" width="209.55" height="372.71"/></clipPath><clipPath id="clip-path-27"><polygon class="cls-4" points="11.36 13.33 10.86 12.48 11.19 12.29 11.69 13.14 11.36 13.33"/></clipPath><clipPath id="clip-path-29"><polygon class="cls-4" points="5.61 13.33 5.28 13.14 5.77 12.29 6.1 12.48 5.61 13.33"/></clipPath><clipPath id="clip-path-31"><rect class="cls-3" x="13.13" y="10.29" width="0.38" height="0.99" transform="translate(-2.65 17) rotate(-60.26)"/></clipPath><clipPath id="clip-path-33"><polygon class="cls-4" points="3.31 11.2 3.13 10.87 3.98 10.38 4.17 10.71 3.31 11.2"/></clipPath><clipPath id="clip-path-35"><rect class="cls-3" x="13.46" y="7.81" width="0.95" height="0.38"/></clipPath><clipPath id="clip-path-37"><rect class="cls-3" x="2.54" y="7.81" width="0.96" height="0.38"/></clipPath><clipPath id="clip-path-39"><polygon class="cls-4" points="12.98 5.67 12.8 5.34 13.65 4.84 13.84 5.18 12.98 5.67"/></clipPath><clipPath id="clip-path-41"><rect class="cls-3" x="3.45" y="4.76" width="0.38" height="0.99" transform="translate(-2.73 5.79) rotate(-60.01)"/></clipPath><clipPath id="clip-path-43"><polygon class="cls-4" points="11.18 3.75 10.85 3.56 11.35 2.72 11.69 2.91 11.18 3.75"/></clipPath><clipPath id="clip-path-45"><polygon class="cls-4" points="5.76 3.75 5.26 2.9 5.61 2.72 6.1 3.57 5.76 3.75"/></clipPath><clipPath id="clip-path-47"><polygon class="cls-4" points="8.29 2.06 8.29 3.02 8.66 3.02 8.67 2.06 8.29 2.06"/></clipPath></defs><title>icon_feed_duration</title><g class="cls-5"><g class="cls-6"><rect class="cls-7" x="5.5" y="10.37" width="5.97" height="6.55"/></g></g><g class="cls-8"><g class="cls-6"><rect class="cls-7" x="8.07" y="9.49" width="6.41" height="6.63"/></g></g><g class="cls-9"><g class="cls-6"><rect class="cls-7" x="2.48" y="9.49" width="6.41" height="6.63"/></g></g><g class="cls-10"><g class="cls-6"><rect class="cls-7" x="10" y="7.58" width="6.64" height="6.41"/></g></g><g class="cls-11"><g class="cls-6"><rect class="cls-7" x="0.33" y="7.58" width="6.63" height="6.41"/></g></g><g class="cls-12"><g class="cls-6"><rect class="cls-7" x="10.67" y="5.02" width="6.54" height="5.97"/></g></g><g class="cls-13"><g class="cls-6"><rect class="cls-7" x="-0.26" y="5.02" width="6.55" height="5.97"/></g></g><g class="cls-14"><g class="cls-6"><rect class="cls-7" x="10" y="2.05" width="6.64" height="6.41"/></g></g><g class="cls-15"><g class="cls-6"><rect class="cls-7" x="0.33" y="2.05" width="6.64" height="6.41"/></g></g><g class="cls-16"><g class="cls-6"><rect class="cls-7" x="8.05" y="-0.08" width="6.42" height="6.63"/></g></g><g class="cls-17"><g class="cls-6"><rect class="cls-7" x="2.47" y="-0.08" width="6.43" height="6.63"/></g></g><g class="cls-18"><g class="cls-6"><rect class="cls-7" x="5.5" y="-0.73" width="5.97" height="6.55"/></g></g><circle class="cls-19" cx="8.51" cy="8.16" r="7.32"/><rect class="cls-3" x="8.29" y="13.17" width="0.38" height="0.96"/><g class="cls-20"><rect class="cls-3" x="-15.01" y="-130.66" width="209.55" height="372.71"/><g class="cls-21"><rect class="cls-3" x="5.5" y="10.37" width="5.97" height="6.55"/></g></g><polygon class="cls-22" points="11.36 13.33 10.86 12.48 11.19 12.29 11.69 13.14 11.36 13.33"/><g class="cls-23"><rect class="cls-3" x="-15.01" y="-130.66" width="209.55" height="372.71"/><g class="cls-21"><rect class="cls-3" x="8.07" y="9.49" width="6.41" height="6.63"/></g></g><polygon class="cls-22" points="5.61 13.33 5.28 13.14 5.77 12.29 6.1 12.48 5.61 13.33"/><g class="cls-24"><rect class="cls-3" x="-15.01" y="-130.66" width="209.55" height="372.71"/><g class="cls-21"><rect class="cls-3" x="2.48" y="9.49" width="6.41" height="6.63"/></g></g><rect class="cls-3" x="13.13" y="10.29" width="0.38" height="0.99" transform="translate(-2.65 17) rotate(-60.26)"/><g class="cls-25"><rect class="cls-3" x="-15.01" y="-130.66" width="209.55" height="372.71"/><g class="cls-21"><rect class="cls-3" x="10" y="7.58" width="6.64" height="6.41"/></g></g><polygon class="cls-22" points="3.31 11.2 3.13 10.87 3.98 10.38 4.17 10.71 3.31 11.2"/><g class="cls-26"><rect class="cls-3" x="-15.01" y="-130.66" width="209.55" height="372.71"/><g class="cls-21"><rect class="cls-3" x="0.33" y="7.58" width="6.63" height="6.41"/></g></g><rect class="cls-3" x="13.46" y="7.81" width="0.95" height="0.38"/><g class="cls-27"><rect class="cls-3" x="-15.01" y="-130.66" width="209.55" height="372.71"/><g class="cls-21"><rect class="cls-3" x="10.67" y="5.02" width="6.54" height="5.97"/></g></g><rect class="cls-3" x="2.54" y="7.81" width="0.96" height="0.38"/><g class="cls-28"><rect class="cls-3" x="-15.01" y="-130.66" width="209.55" height="372.71"/><g class="cls-21"><rect class="cls-3" x="-0.26" y="5.02" width="6.55" height="5.97"/></g></g><polygon class="cls-22" points="12.98 5.67 12.8 5.34 13.65 4.84 13.84 5.18 12.98 5.67"/><g class="cls-29"><rect class="cls-3" x="-15.01" y="-130.66" width="209.55" height="372.71"/><g class="cls-21"><rect class="cls-3" x="10" y="2.05" width="6.64" height="6.41"/></g></g><rect class="cls-3" x="3.45" y="4.76" width="0.38" height="0.99" transform="translate(-2.73 5.79) rotate(-60.01)"/><g class="cls-30"><rect class="cls-3" x="-15.01" y="-130.66" width="209.55" height="372.71"/><g class="cls-21"><rect class="cls-3" x="0.33" y="2.05" width="6.64" height="6.41"/></g></g><polygon class="cls-22" points="11.18 3.75 10.85 3.56 11.35 2.72 11.69 2.91 11.18 3.75"/><g class="cls-31"><rect class="cls-3" x="-15.01" y="-130.66" width="209.55" height="372.71"/><g class="cls-21"><rect class="cls-3" x="8.05" y="-0.08" width="6.42" height="6.63"/></g></g><polygon class="cls-22" points="5.76 3.75 5.26 2.9 5.61 2.72 6.1 3.57 5.76 3.75"/><g class="cls-32"><rect class="cls-3" x="-15.01" y="-130.66" width="209.55" height="372.71"/><g class="cls-21"><rect class="cls-3" x="2.47" y="-0.08" width="6.43" height="6.63"/></g></g><polygon class="cls-22" points="8.29 2.06 8.29 3.02 8.66 3.02 8.67 2.06 8.29 2.06"/><g class="cls-33"><rect class="cls-3" x="-15.01" y="-130.66" width="209.55" height="372.71"/><g class="cls-21"><rect class="cls-3" x="5.5" y="-0.73" width="5.97" height="6.55"/></g></g><path class="cls-3" d="M8.51.84v7l6.43,3.91S18.85,2.61,8.51.84Z"/></svg>