<svg id="Layer_1" data-name="Layer 1" xmlns="http://www.w3.org/2000/svg" xmlns:xlink="http://www.w3.org/1999/xlink" viewBox="0 0 15.75 15.55"><defs><style>.cls-1,.cls-2,.cls-24{fill:none;}.cls-2,.cls-4{clip-rule:evenodd;}.cls-27,.cls-3,.cls-4{fill:#1d1d1b;}.cls-5{clip-path:url(#clip-path);}.cls-6{clip-path:url(#clip-path-2);}.cls-7{fill:#fff;}.cls-8{clip-path:url(#clip-path-3);}.cls-9{clip-path:url(#clip-path-5);}.cls-10{clip-path:url(#clip-path-7);}.cls-11{clip-path:url(#clip-path-9);}.cls-12{clip-path:url(#clip-path-11);}.cls-13{clip-path:url(#clip-path-13);}.cls-14{clip-path:url(#clip-path-15);}.cls-15{clip-path:url(#clip-path-17);}.cls-16{clip-path:url(#clip-path-19);}.cls-17{clip-path:url(#clip-path-21);}.cls-18{clip-path:url(#clip-path-23);}.cls-19{clip-path:url(#clip-path-25);}.cls-20{isolation:isolate;}.cls-21{clip-path:url(#clip-path-27);}.cls-22{clip-path:url(#clip-path-28);}.cls-23{clip-path:url(#clip-path-30);}.cls-24{stroke:#1d1d1b;stroke-miterlimit:10;}.cls-25{clip-path:url(#clip-path-32);}.cls-26{clip-path:url(#clip-path-33);}.cls-27{fill-rule:evenodd;}.cls-28{clip-path:url(#clip-path-34);}.cls-29{clip-path:url(#clip-path-36);}.cls-30{clip-path:url(#clip-path-38);}.cls-31{clip-path:url(#clip-path-40);}.cls-32{clip-path:url(#clip-path-42);}.cls-33{clip-path:url(#clip-path-44);}.cls-34{clip-path:url(#clip-path-46);}.cls-35{clip-path:url(#clip-path-48);}.cls-36{clip-path:url(#clip-path-50);}.cls-37{clip-path:url(#clip-path-52);}.cls-38{clip-path:url(#clip-path-54);}.cls-39{clip-path:url(#clip-path-59);}.cls-40{clip-path:url(#clip-path-60);}.cls-41{clip-path:url(#clip-path-61);}</style><clipPath id="clip-path"><rect class="cls-1" x="7.66" y="12.8" width="0.37" height="0.94"/></clipPath><clipPath id="clip-path-2"><rect class="cls-1" x="-15.13" y="-127.87" width="204.95" height="364.53"/></clipPath><clipPath id="clip-path-3"><polygon class="cls-2" points="10.66 12.96 10.17 12.13 10.49 11.94 10.98 12.77 10.66 12.96"/></clipPath><clipPath id="clip-path-5"><polygon class="cls-2" points="5.03 12.96 4.71 12.77 5.2 11.94 5.52 12.13 5.03 12.96"/></clipPath><clipPath id="clip-path-7"><rect class="cls-1" x="12.39" y="9.99" width="0.37" height="0.97" transform="translate(-2.75 16.2) rotate(-60.26)"/></clipPath><clipPath id="clip-path-9"><polygon class="cls-2" points="2.79 10.87 2.61 10.55 3.44 10.07 3.62 10.39 2.79 10.87"/></clipPath><clipPath id="clip-path-11"><rect class="cls-1" x="12.72" y="7.56" width="0.93" height="0.37"/></clipPath><clipPath id="clip-path-13"><rect class="cls-1" x="2.03" y="7.56" width="0.94" height="0.37"/></clipPath><clipPath id="clip-path-15"><polygon class="cls-2" points="12.25 5.47 12.07 5.14 12.9 4.66 13.09 4.99 12.25 5.47"/></clipPath><clipPath id="clip-path-17"><rect class="cls-1" x="2.93" y="4.58" width="0.38" height="0.96" transform="translate(-2.83 5.23) rotate(-60.01)"/></clipPath><clipPath id="clip-path-19"><polygon class="cls-2" points="10.48 3.6 10.16 3.41 10.66 2.58 10.98 2.77 10.48 3.6"/></clipPath><clipPath id="clip-path-21"><polygon class="cls-2" points="5.18 3.6 4.7 2.76 5.04 2.58 5.52 3.41 5.18 3.6"/></clipPath><clipPath id="clip-path-23"><polygon class="cls-2" points="7.66 1.94 7.66 2.88 8.02 2.88 8.03 1.94 7.66 1.94"/></clipPath><clipPath id="clip-path-25"><rect class="cls-1" x="0.17" y="0.02" width="15.4" height="15.4"/></clipPath><clipPath id="clip-path-27"><rect class="cls-1" x="4" y="3.3" width="4.37" height="4.92"/></clipPath><clipPath id="clip-path-28"><rect class="cls-1" x="7.51" y="3.33" width="0.64" height="4.64"/></clipPath><clipPath id="clip-path-30"><rect class="cls-1" x="4.33" y="7.33" width="3.85" height="0.66"/></clipPath><clipPath id="clip-path-32"><rect class="cls-3" x="7.66" y="12.8" width="0.37" height="0.94"/></clipPath><clipPath id="clip-path-33"><rect class="cls-3" x="-15.13" y="-127.87" width="204.95" height="364.53"/></clipPath><clipPath id="clip-path-34"><polygon class="cls-4" points="10.66 12.96 10.17 12.13 10.49 11.94 10.98 12.77 10.66 12.96"/></clipPath><clipPath id="clip-path-36"><polygon class="cls-4" points="5.03 12.96 4.71 12.77 5.2 11.94 5.52 12.13 5.03 12.96"/></clipPath><clipPath id="clip-path-38"><rect class="cls-3" x="12.39" y="9.99" width="0.37" height="0.97" transform="translate(-2.75 16.2) rotate(-60.26)"/></clipPath><clipPath id="clip-path-40"><polygon class="cls-4" points="2.79 10.87 2.61 10.55 3.44 10.07 3.62 10.39 2.79 10.87"/></clipPath><clipPath id="clip-path-42"><rect class="cls-3" x="12.72" y="7.56" width="0.93" height="0.37"/></clipPath><clipPath id="clip-path-44"><rect class="cls-3" x="2.03" y="7.56" width="0.94" height="0.37"/></clipPath><clipPath id="clip-path-46"><polygon class="cls-4" points="12.25 5.47 12.07 5.14 12.9 4.66 13.09 4.99 12.25 5.47"/></clipPath><clipPath id="clip-path-48"><rect class="cls-3" x="2.93" y="4.58" width="0.38" height="0.96" transform="translate(-2.83 5.23) rotate(-60.01)"/></clipPath><clipPath id="clip-path-50"><polygon class="cls-4" points="10.48 3.6 10.16 3.41 10.66 2.58 10.98 2.77 10.48 3.6"/></clipPath><clipPath id="clip-path-52"><polygon class="cls-4" points="5.18 3.6 4.7 2.76 5.04 2.58 5.52 3.41 5.18 3.6"/></clipPath><clipPath id="clip-path-54"><polygon class="cls-4" points="7.66 1.94 7.66 2.88 8.02 2.88 8.03 1.94 7.66 1.94"/></clipPath><clipPath id="clip-path-59"><rect class="cls-3" x="7.51" y="3.33" width="0.64" height="4.64"/></clipPath><clipPath id="clip-path-60"><rect class="cls-3" x="4" y="3.3" width="4.37" height="4.92"/></clipPath><clipPath id="clip-path-61"><rect class="cls-3" x="4.33" y="7.33" width="3.85" height="0.66"/></clipPath></defs><title>icon_feedstarttime</title><g class="cls-5"><g class="cls-6"><rect class="cls-7" x="4.93" y="10.07" width="5.84" height="6.4"/></g></g><g class="cls-8"><g class="cls-6"><rect class="cls-7" x="7.44" y="9.21" width="6.27" height="6.49"/></g></g><g class="cls-9"><g class="cls-6"><rect class="cls-7" x="1.98" y="9.21" width="6.27" height="6.49"/></g></g><g class="cls-10"><g class="cls-6"><rect class="cls-7" x="9.33" y="7.34" width="6.49" height="6.27"/></g></g><g class="cls-11"><g class="cls-6"><rect class="cls-7" x="-0.13" y="7.34" width="6.48" height="6.27"/></g></g><g class="cls-12"><g class="cls-6"><rect class="cls-7" x="9.99" y="4.83" width="6.39" height="5.84"/></g></g><g class="cls-13"><g class="cls-6"><rect class="cls-7" x="-0.7" y="4.83" width="6.4" height="5.84"/></g></g><g class="cls-14"><g class="cls-6"><rect class="cls-7" x="9.33" y="1.93" width="6.49" height="6.27"/></g></g><g class="cls-15"><g class="cls-6"><rect class="cls-7" x="-0.13" y="1.93" width="6.49" height="6.27"/></g></g><g class="cls-16"><g class="cls-6"><rect class="cls-7" x="7.43" y="-0.15" width="6.28" height="6.48"/></g></g><g class="cls-17"><g class="cls-6"><rect class="cls-7" x="1.97" y="-0.15" width="6.29" height="6.48"/></g></g><g class="cls-18"><g class="cls-6"><rect class="cls-7" x="4.93" y="-0.79" width="5.84" height="6.4"/></g></g><g class="cls-19"><g class="cls-6"><g class="cls-20"><g class="cls-21"><g class="cls-22"><g class="cls-21"><rect class="cls-7" x="4.78" y="0.6" width="6.11" height="10.1"/></g></g><g class="cls-23"><g class="cls-21"><rect class="cls-7" x="1.6" y="4.6" width="9.31" height="6.12"/></g></g></g></g></g></g><circle class="cls-24" cx="7.87" cy="7.9" r="7.15"/><rect class="cls-3" x="7.66" y="12.8" width="0.37" height="0.94"/><g class="cls-25"><rect class="cls-3" x="-15.13" y="-127.87" width="204.95" height="364.53"/><g class="cls-26"><rect class="cls-3" x="4.93" y="10.07" width="5.84" height="6.4"/></g></g><polygon class="cls-27" points="10.66 12.96 10.17 12.13 10.49 11.94 10.98 12.77 10.66 12.96"/><g class="cls-28"><rect class="cls-3" x="-15.13" y="-127.87" width="204.95" height="364.53"/><g class="cls-26"><rect class="cls-3" x="7.44" y="9.21" width="6.27" height="6.49"/></g></g><polygon class="cls-27" points="5.03 12.96 4.71 12.77 5.2 11.94 5.52 12.13 5.03 12.96"/><g class="cls-29"><rect class="cls-3" x="-15.13" y="-127.87" width="204.95" height="364.53"/><g class="cls-26"><rect class="cls-3" x="1.98" y="9.21" width="6.27" height="6.49"/></g></g><rect class="cls-3" x="12.39" y="9.99" width="0.37" height="0.97" transform="translate(-2.75 16.2) rotate(-60.26)"/><g class="cls-30"><rect class="cls-3" x="-15.13" y="-127.87" width="204.95" height="364.53"/><g class="cls-26"><rect class="cls-3" x="9.33" y="7.34" width="6.49" height="6.27"/></g></g><polygon class="cls-27" points="2.79 10.87 2.61 10.55 3.44 10.07 3.62 10.39 2.79 10.87"/><g class="cls-31"><rect class="cls-3" x="-15.13" y="-127.87" width="204.95" height="364.53"/><g class="cls-26"><rect class="cls-3" x="-0.13" y="7.34" width="6.48" height="6.27"/></g></g><rect class="cls-3" x="12.72" y="7.56" width="0.93" height="0.37"/><g class="cls-32"><rect class="cls-3" x="-15.13" y="-127.87" width="204.95" height="364.53"/><g class="cls-26"><rect class="cls-3" x="9.99" y="4.83" width="6.39" height="5.84"/></g></g><rect class="cls-3" x="2.03" y="7.56" width="0.94" height="0.37"/><g class="cls-33"><rect class="cls-3" x="-15.13" y="-127.87" width="204.95" height="364.53"/><g class="cls-26"><rect class="cls-3" x="-0.7" y="4.83" width="6.4" height="5.84"/></g></g><polygon class="cls-27" points="12.25 5.47 12.07 5.14 12.9 4.66 13.09 4.99 12.25 5.47"/><g class="cls-34"><rect class="cls-3" x="-15.13" y="-127.87" width="204.95" height="364.53"/><g class="cls-26"><rect class="cls-3" x="9.33" y="1.93" width="6.49" height="6.27"/></g></g><rect class="cls-3" x="2.93" y="4.58" width="0.38" height="0.96" transform="translate(-2.83 5.23) rotate(-60.01)"/><g class="cls-35"><rect class="cls-3" x="-15.13" y="-127.87" width="204.95" height="364.53"/><g class="cls-26"><rect class="cls-3" x="-0.13" y="1.93" width="6.49" height="6.27"/></g></g><polygon class="cls-27" points="10.48 3.6 10.16 3.41 10.66 2.58 10.98 2.77 10.48 3.6"/><g class="cls-36"><rect class="cls-3" x="-15.13" y="-127.87" width="204.95" height="364.53"/><g class="cls-26"><rect class="cls-3" x="7.43" y="-0.15" width="6.28" height="6.48"/></g></g><polygon class="cls-27" points="5.18 3.6 4.7 2.76 5.04 2.58 5.52 3.41 5.18 3.6"/><g class="cls-37"><rect class="cls-3" x="-15.13" y="-127.87" width="204.95" height="364.53"/><g class="cls-26"><rect class="cls-3" x="1.97" y="-0.15" width="6.29" height="6.48"/></g></g><polygon class="cls-27" points="7.66 1.94 7.66 2.88 8.02 2.88 8.03 1.94 7.66 1.94"/><g class="cls-38"><rect class="cls-3" x="-15.13" y="-127.87" width="204.95" height="364.53"/><g class="cls-26"><rect class="cls-3" x="4.93" y="-0.79" width="5.84" height="6.4"/></g></g><g class="cls-19"><g class="cls-6"><g class="cls-20"><g class="cls-21"><rect class="cls-3" x="7.51" y="3.33" width="0.64" height="4.64"/><g class="cls-39"><rect class="cls-3" x="4" y="3.3" width="4.37" height="4.92"/><g class="cls-40"><rect class="cls-3" x="4.78" y="0.6" width="6.11" height="10.1"/></g></g><rect class="cls-3" x="4.33" y="7.33" width="3.85" height="0.66"/><g class="cls-41"><rect class="cls-3" x="4" y="3.3" width="4.37" height="4.92"/><g class="cls-40"><rect class="cls-3" x="1.6" y="4.6" width="9.31" height="6.12"/></g></g></g></g></g></g></svg>