<svg id="Layer_1" data-name="Layer 1" xmlns="http://www.w3.org/2000/svg" xmlns:xlink="http://www.w3.org/1999/xlink" viewBox="0 0 10.11 22"><defs><style>.cls-1,.cls-15,.cls-2{fill:none;}.cls-1,.cls-5{clip-rule:evenodd;}.cls-3,.cls-8{fill:#fff;}.cls-15,.cls-3{stroke:#000;stroke-miterlimit:10;stroke-width:0.5px;}.cls-16,.cls-4,.cls-5{fill:#1d1d1b;}.cls-6{clip-path:url(#clip-path);}.cls-7{clip-path:url(#clip-path-2);}.cls-9{clip-path:url(#clip-path-3);}.cls-10{clip-path:url(#clip-path-5);}.cls-11{clip-path:url(#clip-path-7);}.cls-12{clip-path:url(#clip-path-9);}.cls-13{clip-path:url(#clip-path-11);}.cls-14{clip-path:url(#clip-path-12);}.cls-16{fill-rule:evenodd;}.cls-17{clip-path:url(#clip-path-13);}.cls-18{clip-path:url(#clip-path-15);}.cls-19{clip-path:url(#clip-path-17);}.cls-20{clip-path:url(#clip-path-19);}</style><clipPath id="clip-path"><path class="cls-1" d="M8.89,7.81a.84.84,0,0,0,.21-.56V5.85A.89.89,0,0,0,8.31,5V4.84c0-.9-.92-1.38-1.52-1.69a4.65,4.65,0,0,1-.45-.26c0-.12,0-.22,0-.3a.74.74,0,0,1,.08-.35,1.72,1.72,0,0,0,.17-.77A1.31,1.31,0,0,0,5.27.16,1.36,1.36,0,0,0,4,1.47a1.83,1.83,0,0,0,.15.71,1.23,1.23,0,0,1,.08.36c0,.1,0,.22,0,.35a3,3,0,0,1-.46.28c-.59.31-1.48.79-1.48,1.67V5a.88.88,0,0,0-.79.88v1.4a.89.89,0,0,0,.2.56A1.52,1.52,0,0,0,.8,9.17V19.88A1.52,1.52,0,0,0,2.32,21.4H8.21a1.53,1.53,0,0,0,1.53-1.52V9.17A1.53,1.53,0,0,0,8.89,7.81Zm-5-4.21c.41-.22.68-.37.71-.62a3.61,3.61,0,0,0,0-.44A1.72,1.72,0,0,0,4.57,2a1.43,1.43,0,0,1-.12-.54A.88.88,0,0,1,5.27.65a.82.82,0,0,1,.82.82A1.47,1.47,0,0,1,6,2.06a1.19,1.19,0,0,0-.12.53,2.69,2.69,0,0,0,0,.38c0,.26.29.4.7.61s1.26.65,1.26,1.26V5H2.72V4.84C2.72,4.25,3.43,3.87,3.94,3.6Zm-2,2.25a.4.4,0,0,1,.4-.4H8.21a.4.4,0,0,1,.4.4v1.4a.4.4,0,0,1-.4.4H2.33a.4.4,0,0,1-.4-.4Zm.39,2.29H8.21a1,1,0,0,1,1,1v1.61a4.12,4.12,0,0,0-2.1-.49,5.94,5.94,0,0,0-1.8.34,6.25,6.25,0,0,1-2,.37,2.88,2.88,0,0,1-2-.59V9.17A1,1,0,0,1,2.32,8.14ZM8.21,20.91H2.32a1,1,0,0,1-1-1V11a3.89,3.89,0,0,0,2,.47A7,7,0,0,0,5.5,11.1a5.49,5.49,0,0,1,1.65-.32,3.19,3.19,0,0,1,2.1.59v8.51A1,1,0,0,1,8.21,20.91Z"/></clipPath><clipPath id="clip-path-2"><rect class="cls-2" x="38.84" y="-146.72" width="219.12" height="389.74"/></clipPath><clipPath id="clip-path-3"><path class="cls-1" d="M2.15,13.57H3.91a.25.25,0,0,0,.24-.28A.25.25,0,0,0,3.91,13H2.15a.25.25,0,0,0-.23.27.25.25,0,0,0,.23.28"/></clipPath><clipPath id="clip-path-5"><path class="cls-1" d="M2.15,15.25H3.91A.25.25,0,0,0,4.15,15a.26.26,0,0,0-.24-.28H2.15a.26.26,0,0,0-.23.28.25.25,0,0,0,.23.28"/></clipPath><clipPath id="clip-path-7"><path class="cls-1" d="M3.91,16.37H2.15a.25.25,0,0,0-.23.28.26.26,0,0,0,.23.28H3.91a.28.28,0,0,0,0-.56"/></clipPath><clipPath id="clip-path-9"><path class="cls-1" d="M3.91,18.6H2.15a.26.26,0,0,0-.23.28.25.25,0,0,0,.23.28H3.91a.25.25,0,0,0,.24-.28.26.26,0,0,0-.24-.28"/></clipPath><clipPath id="clip-path-11"><path class="cls-3" d="M8.89,7.81a.84.84,0,0,0,.21-.56V5.85A.89.89,0,0,0,8.31,5V4.84c0-.9-.92-1.38-1.52-1.69a4.65,4.65,0,0,1-.45-.26c0-.12,0-.22,0-.3a.74.74,0,0,1,.08-.35,1.72,1.72,0,0,0,.17-.77A1.31,1.31,0,0,0,5.27.16,1.36,1.36,0,0,0,4,1.47a1.83,1.83,0,0,0,.15.71,1.23,1.23,0,0,1,.08.36c0,.1,0,.22,0,.35a3,3,0,0,1-.46.28c-.59.31-1.48.79-1.48,1.67V5a.88.88,0,0,0-.79.88v1.4a.89.89,0,0,0,.2.56A1.52,1.52,0,0,0,.8,9.17V19.88A1.52,1.52,0,0,0,2.32,21.4H8.21a1.53,1.53,0,0,0,1.53-1.52V9.17A1.53,1.53,0,0,0,8.89,7.81Zm-5-4.21c.41-.22.68-.37.71-.62a3.61,3.61,0,0,0,0-.44A1.72,1.72,0,0,0,4.57,2a1.43,1.43,0,0,1-.12-.54A.88.88,0,0,1,5.27.65a.82.82,0,0,1,.82.82A1.47,1.47,0,0,1,6,2.06a1.19,1.19,0,0,0-.12.53,2.69,2.69,0,0,0,0,.38c0,.26.29.4.7.61s1.26.65,1.26,1.26V5H2.72V4.84C2.72,4.25,3.43,3.87,3.94,3.6Zm-2,2.25a.4.4,0,0,1,.4-.4H8.21a.4.4,0,0,1,.4.4v1.4a.4.4,0,0,1-.4.4H2.33a.4.4,0,0,1-.4-.4Zm.39,2.29H8.21a1,1,0,0,1,1,1v1.61a4.12,4.12,0,0,0-2.1-.49,5.94,5.94,0,0,0-1.8.34,6.25,6.25,0,0,1-2,.37,2.88,2.88,0,0,1-2-.59V9.17A1,1,0,0,1,2.32,8.14ZM8.21,20.91H2.32a1,1,0,0,1-1-1V11a3.89,3.89,0,0,0,2,.47A7,7,0,0,0,5.5,11.1a5.49,5.49,0,0,1,1.65-.32,3.19,3.19,0,0,1,2.1.59v8.51A1,1,0,0,1,8.21,20.91Z"/></clipPath><clipPath id="clip-path-12"><rect class="cls-4" x="38.84" y="-146.72" width="219.12" height="389.74"/></clipPath><clipPath id="clip-path-13"><path class="cls-5" d="M2.15,13.57H3.91a.25.25,0,0,0,.24-.28A.25.25,0,0,0,3.91,13H2.15a.25.25,0,0,0-.23.27.25.25,0,0,0,.23.28"/></clipPath><clipPath id="clip-path-15"><path class="cls-5" d="M2.15,15.25H3.91A.25.25,0,0,0,4.15,15a.26.26,0,0,0-.24-.28H2.15a.26.26,0,0,0-.23.28.25.25,0,0,0,.23.28"/></clipPath><clipPath id="clip-path-17"><path class="cls-5" d="M3.91,16.37H2.15a.25.25,0,0,0-.23.28.26.26,0,0,0,.23.28H3.91a.28.28,0,0,0,0-.56"/></clipPath><clipPath id="clip-path-19"><path class="cls-5" d="M3.91,18.6H2.15a.26.26,0,0,0-.23.28.25.25,0,0,0,.23.28H3.91a.25.25,0,0,0,.24-.28.26.26,0,0,0-.24-.28"/></clipPath></defs><title>icon_feedvolume_v2-01</title><g class="cls-6"><g class="cls-7"><rect class="cls-8" x="-2" y="-2.63" width="14.53" height="26.82"/></g></g><g class="cls-9"><g class="cls-7"><rect class="cls-8" x="-0.88" y="10.22" width="7.82" height="6.15"/></g></g><g class="cls-10"><g class="cls-7"><rect class="cls-8" x="-0.88" y="11.9" width="7.82" height="6.15"/></g></g><g class="cls-11"><g class="cls-7"><rect class="cls-8" x="-0.88" y="13.57" width="7.82" height="6.15"/></g></g><g class="cls-12"><g class="cls-7"><rect class="cls-8" x="-0.88" y="15.81" width="7.82" height="6.15"/></g></g><path class="cls-8" d="M8.89,7.81a.84.84,0,0,0,.21-.56V5.85A.89.89,0,0,0,8.31,5V4.84c0-.9-.92-1.38-1.52-1.69a4.65,4.65,0,0,1-.45-.26c0-.12,0-.22,0-.3a.74.74,0,0,1,.08-.35,1.72,1.72,0,0,0,.17-.77A1.31,1.31,0,0,0,5.27.16,1.36,1.36,0,0,0,4,1.47a1.83,1.83,0,0,0,.15.71,1.23,1.23,0,0,1,.08.36c0,.1,0,.22,0,.35a3,3,0,0,1-.46.28c-.59.31-1.48.79-1.48,1.67V5a.88.88,0,0,0-.79.88v1.4a.89.89,0,0,0,.2.56A1.52,1.52,0,0,0,.8,9.17V19.88A1.52,1.52,0,0,0,2.32,21.4H8.21a1.53,1.53,0,0,0,1.53-1.52V9.17A1.53,1.53,0,0,0,8.89,7.81Zm-5-4.21c.41-.22.68-.37.71-.62a3.61,3.61,0,0,0,0-.44A1.72,1.72,0,0,0,4.57,2a1.43,1.43,0,0,1-.12-.54A.88.88,0,0,1,5.27.65a.82.82,0,0,1,.82.82A1.47,1.47,0,0,1,6,2.06a1.19,1.19,0,0,0-.12.53,2.69,2.69,0,0,0,0,.38c0,.26.29.4.7.61s1.26.65,1.26,1.26V5H2.72V4.84C2.72,4.25,3.43,3.87,3.94,3.6Zm-2,2.25a.4.4,0,0,1,.4-.4H8.21a.4.4,0,0,1,.4.4v1.4a.4.4,0,0,1-.4.4H2.33a.4.4,0,0,1-.4-.4Zm.39,2.29H8.21a1,1,0,0,1,1,1v1.61a4.12,4.12,0,0,0-2.1-.49,5.94,5.94,0,0,0-1.8.34,6.25,6.25,0,0,1-2,.37,2.88,2.88,0,0,1-2-.59V9.17A1,1,0,0,1,2.32,8.14ZM8.21,20.91H2.32a1,1,0,0,1-1-1V11a3.89,3.89,0,0,0,2,.47A7,7,0,0,0,5.5,11.1a5.49,5.49,0,0,1,1.65-.32,3.19,3.19,0,0,1,2.1.59v8.51A1,1,0,0,1,8.21,20.91Z"/><g class="cls-13"><rect class="cls-4" x="38.84" y="-146.72" width="219.12" height="389.74"/><g class="cls-14"><rect class="cls-4" x="-2" y="-2.63" width="14.53" height="26.82"/></g></g><path class="cls-15" d="M8.89,7.81a.84.84,0,0,0,.21-.56V5.85A.89.89,0,0,0,8.31,5V4.84c0-.9-.92-1.38-1.52-1.69a4.65,4.65,0,0,1-.45-.26c0-.12,0-.22,0-.3a.74.74,0,0,1,.08-.35,1.72,1.72,0,0,0,.17-.77A1.31,1.31,0,0,0,5.27.16,1.36,1.36,0,0,0,4,1.47a1.83,1.83,0,0,0,.15.71,1.23,1.23,0,0,1,.08.36c0,.1,0,.22,0,.35a3,3,0,0,1-.46.28c-.59.31-1.48.79-1.48,1.67V5a.88.88,0,0,0-.79.88v1.4a.89.89,0,0,0,.2.56A1.52,1.52,0,0,0,.8,9.17V19.88A1.52,1.52,0,0,0,2.32,21.4H8.21a1.53,1.53,0,0,0,1.53-1.52V9.17A1.53,1.53,0,0,0,8.89,7.81Zm-5-4.21c.41-.22.68-.37.71-.62a3.61,3.61,0,0,0,0-.44A1.72,1.72,0,0,0,4.57,2a1.43,1.43,0,0,1-.12-.54A.88.88,0,0,1,5.27.65a.82.82,0,0,1,.82.82A1.47,1.47,0,0,1,6,2.06a1.19,1.19,0,0,0-.12.53,2.69,2.69,0,0,0,0,.38c0,.26.29.4.7.61s1.26.65,1.26,1.26V5H2.72V4.84C2.72,4.25,3.43,3.87,3.94,3.6Zm-2,2.25a.4.4,0,0,1,.4-.4H8.21a.4.4,0,0,1,.4.4v1.4a.4.4,0,0,1-.4.4H2.33a.4.4,0,0,1-.4-.4Zm.39,2.29H8.21a1,1,0,0,1,1,1v1.61a4.12,4.12,0,0,0-2.1-.49,5.94,5.94,0,0,0-1.8.34,6.25,6.25,0,0,1-2,.37,2.88,2.88,0,0,1-2-.59V9.17A1,1,0,0,1,2.32,8.14ZM8.21,20.91H2.32a1,1,0,0,1-1-1V11a3.89,3.89,0,0,0,2,.47A7,7,0,0,0,5.5,11.1a5.49,5.49,0,0,1,1.65-.32,3.19,3.19,0,0,1,2.1.59v8.51A1,1,0,0,1,8.21,20.91Z"/><path class="cls-16" d="M2.15,13.57H3.91a.25.25,0,0,0,.24-.28A.25.25,0,0,0,3.91,13H2.15a.25.25,0,0,0-.23.27.25.25,0,0,0,.23.28"/><g class="cls-17"><rect class="cls-4" x="38.84" y="-146.72" width="219.12" height="389.74"/><g class="cls-14"><rect class="cls-4" x="-0.88" y="10.22" width="7.82" height="6.15"/></g></g><path class="cls-16" d="M2.15,15.25H3.91A.25.25,0,0,0,4.15,15a.26.26,0,0,0-.24-.28H2.15a.26.26,0,0,0-.23.28.25.25,0,0,0,.23.28"/><g class="cls-18"><rect class="cls-4" x="38.84" y="-146.72" width="219.12" height="389.74"/><g class="cls-14"><rect class="cls-4" x="-0.88" y="11.9" width="7.82" height="6.15"/></g></g><path class="cls-16" d="M3.91,16.37H2.15a.25.25,0,0,0-.23.28.26.26,0,0,0,.23.28H3.91a.28.28,0,0,0,0-.56"/><g class="cls-19"><rect class="cls-4" x="38.84" y="-146.72" width="219.12" height="389.74"/><g class="cls-14"><rect class="cls-4" x="-0.88" y="13.57" width="7.82" height="6.15"/></g></g><path class="cls-16" d="M3.91,18.6H2.15a.26.26,0,0,0-.23.28.25.25,0,0,0,.23.28H3.91a.25.25,0,0,0,.24-.28.26.26,0,0,0-.24-.28"/><g class="cls-20"><rect class="cls-4" x="38.84" y="-146.72" width="219.12" height="389.74"/><g class="cls-14"><rect class="cls-4" x="-0.88" y="15.81" width="7.82" height="6.15"/></g></g></svg>