<?xml version="1.0" encoding="utf-8"?>
<!-- Generator: Adobe Illustrator 22.0.1, SVG Export Plug-In . SVG Version: 6.00 Build 0)  -->
<svg version="1.1" id="Layer_1" xmlns="http://www.w3.org/2000/svg" xmlns:xlink="http://www.w3.org/1999/xlink" x="0px" y="0px"
	 viewBox="0 0 530.8 532.5" style="enable-background:new 0 0 530.8 532.5;" xml:space="preserve">
<style type="text/css">
	.st0{fill:#F1F1F2;}
	.st1{clip-path:url(#SVGID_2_);}
	.st2{clip-path:url(#SVGID_4_);fill:#FFFFFF;}
	
		.st3{clip-path:url(#SVGID_4_);fill:none;stroke:#231F20;stroke-width:0.5;stroke-linecap:round;stroke-linejoin:round;stroke-miterlimit:10;}
	
		.st4{clip-path:url(#SVGID_4_);fill:none;stroke:#231F20;stroke-width:0.3;stroke-linecap:round;stroke-linejoin:round;stroke-miterlimit:10;}
	.st5{clip-path:url(#SVGID_4_);fill:#BBBDBF;}
	.st6{clip-path:url(#SVGID_4_);fill:#231F20;}
	.st7{clip-path:url(#SVGID_4_);fill:none;stroke:#231F20;stroke-width:0.3;stroke-linecap:round;stroke-linejoin:round;}
	
		.st8{clip-path:url(#SVGID_4_);fill:none;stroke:#231F20;stroke-width:0.75;stroke-linecap:round;stroke-linejoin:round;stroke-miterlimit:10;}
	.st9{clip-path:url(#SVGID_2_);fill:none;stroke:#231F20;stroke-width:0.1;stroke-miterlimit:10;}
</style>
<g>
	<circle class="st0" cx="265.6" cy="265.2" r="265.2"/>
</g>
<g>
	<defs>
		<circle id="SVGID_1_" cx="265.2" cy="267.3" r="265.2"/>
	</defs>
	<clipPath id="SVGID_2_">
		<use xlink:href="#SVGID_1_"  style="overflow:visible;"/>
	</clipPath>
	<g class="st1">
		<defs>
			<rect id="SVGID_3_" x="-30.4" y="-4.8" width="541.2" height="541.2"/>
		</defs>
		<clipPath id="SVGID_4_">
			<use xlink:href="#SVGID_3_"  style="overflow:visible;"/>
		</clipPath>
		<path class="st2" d="M772.4,492.2c-4.3-28.5-22.8-90.6-34.2-121.2c-11.4-30.7-28.5-94.8-30.7-102.7c-1-3.8-3.3-11.3-5.5-18.1
			l1.2-3.3c1.4-5,8.6-14.3,5.7-18.5c-2.9-4.3-2.9-11.4-19.3-37.8c-16.4-26.4-12.1-29.9-34.2-39.2c-22.1-9.3-58.5-7.1-73.4-4.3
			c-15,2.9-54.2,5.7-54.2,5.7l-4.3,2.9c-10.9-0.7-21.2-4.7-30.5-10.2c0.5-4.5,2.4-24.6-5.8-39.7c-9.3-17.1-17.8-36.4-24.2-58.5
			c-6.4-22.1-5-46.3-25.7-61.3c-20.7-15-22.1-10-22.1-10s-47.8-96.3-105.5-93.4c0,0-19.3-12.8-17.1-7.1l-15.7,1.4
			c-20,4.3-54.2,22.1-77,69.9C177-5.5,157.8,56.6,158.5,71.5c0.7,15,6.4,20.7,6.4,20.7s2.1,20.7,25.7,29.2c0,0-4.8-16.3-4.6-30.4
			l3.6,4.4c0,0,21.7,27.4,25.7,32.1c3.9,4.6,7.1,4.6,11,5.3c3.9,0.7,15,2.5,18.5,7.8c1.2,1.8,3.1,6.3,5.1,11.6l-0.5,0.1
			c0,0-28.9,3.2-37.4,52.4c0,0-13.9,1.1-3.2,21.4l-25.7,72.9c-32.4-4.8-121.8,5.5-126.7,105.7c-2.3,46.8,29.9,88.9,78.5,102.9
			c0,0-11.2,33,17.3,61.5c0,0,8.2,9.5,28.7,14.9l-3,0.1c-41.4-17.1-252.4-57-283.8-57c-31.4,0-49.9,4.3-71.3,21.4
			c-21.4,17.1-104.1,114.1-181.1,215.3c-77,101.3-158.3,191.1-158.3,191.1s15.7,18.5,32.8,29.9c17.1,11.4,37.1,11.4,59.9,25.7
			c20,12.5,37.8,31.5,59.1,27.5l79.2,76.6l149.7-5.7c34.2-94.1,65.6-199.6,68.4-218.2c2.9-18.5,0-32.8,7.1-35.7
			c7.1-2.9,10-5.7,10-15.7c0-10,4.3-12.8,7.1-18.5c2.9-5.7,0-31.4,0-31.4s77-10,98.4-14.3c31.4,14.3,220.9,93.6,271.6,96
			c4.7,8.8,26.4,43.4,34,52.2c7.6,8.8,12.3,11.7,14.7,5.9c2.3-5.9,6.4-17,7-26.4c0.6-9.4,7-11.1,12.3-14.1
			c5.3-2.9,10.5-6.4,15.8-2.4c5.3,4.1,19.3,14.1,34,14.1c14.7,0,22.3-3.5,22.3-9.4c0-5.9,22.9-34,65.6-34c42.8,0,56.3,0.6,81.5,9.4
			l134.3-288.1C756.7,560.6,776.7,520.7,772.4,492.2"/>
		<path class="st3" d="M772.4,492.2c-4.3-28.5-22.8-90.6-34.2-121.2c-11.4-30.7-28.5-94.8-30.7-102.7c-1-3.8-3.3-11.3-5.5-18.1
			l1.2-3.3c1.4-5,8.6-14.3,5.7-18.5c-2.9-4.3-2.9-11.4-19.3-37.8c-16.4-26.4-12.1-29.9-34.2-39.2c-22.1-9.3-58.5-7.1-73.4-4.3
			c-15,2.9-54.2,5.7-54.2,5.7l-4.3,2.9c-10.9-0.7-21.2-4.7-30.5-10.2c0.5-4.5,2.4-24.6-5.8-39.7c-9.3-17.1-17.8-36.4-24.2-58.5
			c-6.4-22.1-5-46.3-25.7-61.3c-20.7-15-22.1-10-22.1-10s-47.8-96.3-105.5-93.4c0,0-19.3-12.8-17.1-7.1l-15.7,1.4
			c-20,4.3-54.2,22.1-77,69.9C177-5.5,157.8,56.6,158.5,71.5c0.7,15,6.4,20.7,6.4,20.7s2.1,20.7,25.7,29.2c0,0-4.8-16.3-4.6-30.4
			l3.6,4.4c0,0,21.7,27.4,25.7,32.1c3.9,4.6,7.1,4.6,11,5.3c3.9,0.7,15,2.5,18.5,7.8c1.2,1.8,3.1,6.3,5.1,11.6l-0.5,0.1
			c0,0-28.9,3.2-37.4,52.4c0,0-13.9,1.1-3.2,21.4l-25.7,72.9c-32.4-4.8-121.8,5.5-126.7,105.7c-2.3,46.8,29.9,88.9,78.5,102.9
			c0,0-11.2,33,17.3,61.5c0,0,8.2,9.5,28.7,14.9l-3,0.1c-41.4-17.1-252.4-57-283.8-57c-31.4,0-49.9,4.3-71.3,21.4
			c-21.4,17.1-104.1,114.1-181.1,215.3c-77,101.3-158.3,191.1-158.3,191.1s15.7,18.5,32.8,29.9c17.1,11.4,37.1,11.4,59.9,25.7
			c20,12.5,37.8,31.5,59.1,27.5l79.2,76.6l149.7-5.7c34.2-94.1,65.6-199.6,68.4-218.2c2.9-18.5,0-32.8,7.1-35.7
			c7.1-2.9,10-5.7,10-15.7c0-10,4.3-12.8,7.1-18.5c2.9-5.7,0-31.4,0-31.4s77-10,98.4-14.3c31.4,14.3,220.9,93.6,271.6,96
			c4.7,8.8,26.4,43.4,34,52.2c7.6,8.8,12.3,11.7,14.7,5.9c2.3-5.9,6.4-17,7-26.4c0.6-9.4,7-11.1,12.3-14.1
			c5.3-2.9,10.5-6.4,15.8-2.4c5.3,4.1,19.3,14.1,34,14.1c14.7,0,22.3-3.5,22.3-9.4c0-5.9,22.9-34,65.6-34c42.8,0,56.3,0.6,81.5,9.4
			l134.3-288.1C756.7,560.6,776.7,520.7,772.4,492.2z"/>
		<path class="st4" d="M195.4,424c0,0-5.4-1.4-7.7-1.4c-2.3,0-3.6,5-2.3,7.2 M185.9,409.1c0,0,0.5,6.3-5,7.7
			c-5.4,1.4-4.1-0.5-4.1-0.5s-4.1,7.2-1.8,11.3c2.3,4.1,6.8,5.4,13.1,1.8c0,0,8.6-3.2,7.2-8.1c0,0-3.2-6.3,1.4-6.3
			c4.5,0,5.4-2.7,5-4.1 M181,403.3c0,0-14.2,6.3-14.9,19.4c-1.3,25.7,27.1,17.2,33,10.8c3.9-4.2,8.1-7.2,11.3-8.6
			c3.2-1.4,6.8-4.5,7.2-7.7c0.5-3.2-3.6-8.1-5-8.1 M242.2,325.7c0,0-1.6,5.9,0.3,5.9c1.2,0,1.1-1.4,0.9-2.5
			c-0.1-0.6-0.8-1.7-0.8-1.7 M296,360.1c0,0,3.7,4.3,7.7,8.4c4,4,5.7,9.4,1.3,15.1 M210.4,479.2c0,0,0.5-14.4,0.5-19.8
			c0-5.3,2.1-15,10.7-20.3c8.6-5.4,23.5-20.3,31-26.7c7.5-6.4,35.3-26.7,49.2-27.8c13.9-1.1,18.2,1.1,27.8,4.3
			c9.6,3.2,21.4,7.5,26.7,13.9 M229.1,216.6c0,0,9.6,45.6,31,67 M208.8,226.2c0,0,22.5,43.8,46,59.9 M134.8,507.7
			c8.5,0.2,16.6,2.8,23-1.2c9.3-5.9,27.5-19.3,52.6-27.3c25.1-8,34.2-10.7,44.9-14.4c10.7-3.8,17.1-12.3,28.3-15
			c11.2-2.7,13.9-5.3,23-9.6c9.1-4.3,38-30,42.8-32.6c4.8-2.7,11.8-6.4,15.5-5.9c3.7,0.5,13.4,3.2,19.8,3.7
			c6.4,0.5,10.7-0.5,13.9-0.5c3.2,0,6.4,0.5,11.2,4.8l4.5,3.3 M191.8,311.6c0,0-4.1,7.6,1.5,27.9 M204.8,319.4l1.8,22
			c0,0,3.3-8.8,9.9-12.1 M183.1,299.1c3,0.6,8.6,2.1,11.7,4.1c5.6,3.5,8.8,8.5,13.7,10.9c7.5,3.8,12.2,8.5,17.9,5.7
			c5.6-2.8,12.1-8.5,15.7-2.1c3.6,6.4,3.3,7.6,3.3,7.6l6,0.7"/>
		<path class="st5" d="M403.1,274.4c3-4.1,3.9-10-1.8-17.1c-5.7-7.1-28.5-30.7-37.8-39.2c-9.3-8.6-21.3-1.7-21.3-1.7
			c-16.8,10.2-31.3,28.1-44.9,39.6c-7.8,6.6-18.4,7.8-28.1,16.6c-3.7,3.4-5.1,8.8-5.1,8.8s-6.5,5.1-8.6,9
			c-2.1,3.9-5.4,29.1-4.1,35.6c1.3,6.6,9.6,15,15.9,20.5c4.2,3.7,12,10.5,19.5,13.4c6.6,1.3,29.9-1.3,33.8-3.4
			c3.9-2.1,7.9-7.6,7.9-7.6s4.9,0.6,8.6-3.9c6-7.3,12.3-22,17.1-26.4C364.9,309,391.7,290.2,403.1,274.4"/>
		<path class="st4" d="M255.8,126.8c0,0,4.3,4.3,5,6.1 M286.5,177.8c0,0,5.3-1.8,4.3-4.3c-1.1-2.5-5-0.4-6.1,2.9
			c-1.1,3.2-1.8,5.3-1.8,5.3 M284.4,160.3c0,0,7.4-1.6,8.6,3.6c1.1,4.6,0.4,9.6,0.4,9.6 M304.3,192.7c6.8,0.5,23.9-22.5,23.9-22.5
			s6.1-4.2,4,2.9c-2.1,7.1-4.8,16.1-7.6,19.6c-2.9,3.6-8.8,5.6-12,5.6 M189.5,95.4c0,0,21.7,27.5,25.7,32.1c3.9,4.6,7.1,4.6,11,5.3
			c3.9,0.7,15,2.5,18.5,7.8c3.6,5.3,12.8,33.5,15,41.7c2.1,8.2,5,11.8,10,11.1c5-0.7,10.3-3.6,13.9-7.5c0,0,7.5,2.9,9.3,5.7
			c0,0,4.6,1.8,11.4,1.1c0,0,4.3,3.9,8.2,5.7c0,0,1.8,5.7,3.7,6.2c1.6,0.4,3.5,0.2,5.5,0.2c3.2,0,8.9,7.1,12.1,16.4 M382,202
			c0,0,1.8,3.6,6.8,7.5c5,3.9,12.5,10.3,15,16.4 M400.2,116.1c0,0,4.3,15,5.7,24.2c1.4,9.3,1.4,13.2-4.6,26.4
			c-6.1,13.2-28.7,49.9-32.9,55.9 M403.1,274.4c3-4.1,3.9-10-1.8-17.1c-5.7-7.1-28.5-30.7-37.8-39.2c-9.3-8.6-21.3-1.7-21.3-1.7
			c-16.8,10.2-31.3,28.1-44.9,39.6c-7.8,6.6-18.4,7.8-28.1,16.6c-3.7,3.4-5.1,8.8-5.1,8.8s-6.5,5.1-8.6,9
			c-2.1,3.9-5.4,29.1-4.1,35.6c1.3,6.6,9.6,15,15.9,20.5c4.2,3.7,12,10.5,19.5,13.4c6.6,1.3,29.9-1.3,33.8-3.4
			c3.9-2.1,7.9-7.6,7.9-7.6s4.9,0.6,8.6-3.9c6-7.3,12.3-22,17.1-26.4C364.9,309,391.7,290.2,403.1,274.4z"/>
		<path class="st6" d="M287.9,115.7c-10.7,13.6-29.6,26-29.6,26s2.1-5.7,2.5-8.9C260.8,132.8,280.1,124.3,287.9,115.7"/>
		<path class="st7" d="M287.9,115.7c-10.7,13.6-29.6,26-29.6,26s2.1-5.7,2.5-8.9C260.8,132.8,280.1,124.3,287.9,115.7z"/>
		<path class="st4" d="M267.6,136.4c0,0,1.4,1.8,10,2.1l-6.1-5L267.6,136.4z"/>
		<path class="st6" d="M277.2,102.9c6.5-0.1-16.8,4.6-23.5,8.6c-6.8,3.9-11.8,11.4-15.3,14.6c-3.6,3.2-4.9-1-3.2-3.2
			C240.1,116.1,251.2,103.3,277.2,102.9"/>
		<path class="st4" d="M389,438c0,0,18.2-21.9,25.1-24.1c0,0-3.3-28.5,8-57.4c0.6-2.8,0.8-5.1,0-6.8c-2.1-4.8-9.6-16.6-9.6-28.9
			c0-12.3,1.6-22.5-0.5-28.9c-1.4-4.2-2.8-6.1-3.8-7.4c-0.5-0.7-0.4-2.5-0.2-2.8c1.1-1.6,4.2-5.2,8.8-3.1c1.9,0.9,4.9,3.2,5.8,7.4
			c6.7,3.5,9.6,15.7,9.6,15.7s1.1-15.7,1.1-18.9c0-3.2-4.3-8.6-6.4-11.8c-2-3-2.4-10.6,3.2-13.4c0.7-0.4,1.4-0.2,1.9,0.2
			c3.3,2.8,16,13.5,17.4,18.6c0,0,13.4,1.6,18.2,16.6c0,0,3.7,1.1,7.4,5.3c3.8,1.7,6.3,6.6,7.1,10.8c1.6,9.1-0.5,19.8-1.6,26.2
			c-1.1,6.4-9.8,16.6-9.1,22.5c5.8,26.6,6.4,49.1,0,75.4 M432.3,301.8l1,3.6 M476.7,306.5c0,0,0.1-2.3-0.3-4.2c-0.4-2-1.3-4-1.3-4
			 M467.6,293.1l1.1,5.9 M453.1,292.2c0,0-1.6-11.4-3.7-15.7 M205.9,323.9c0,0,4.4,0.3,7.6,6c0.3,2.8-6.6-1-7.2-2.5
			C205.6,325.8,205.9,323.9,205.9,323.9z M313,164.2c7.6,1.3,15,1.3,18.1,1.3c3.2,0,9,4,9.5,6.6 M321.8,204.9c0,0,7-1.4,10.5-11.7
			l-0.1-19.9 M328.2,170.3c-4.8,4.1-16.1,11.1-19.7,13.4c-3.6,2.3-9.4,5.5-9.4,5.5v3.3 M177.8,584.2c-41.4-17.1-252.4-57-283.8-57
			c-31.4,0-49.9,4.3-71.3,21.4c-21.4,17.1-104.1,114.1-181.1,215.3c-77,101.3-158.3,191.1-158.3,191.1s15.7,18.5,32.8,29.9
			c17.1,11.4,37.1,11.4,59.9,25.7c22.8,14.3,42.8,37.1,68.5,24.2c0,0,55.6-65.6,109.8-141.2 M386.7,559.9c0,0,18.5-12.1,32.8-18.5
			c14.3-6.4,18.5-10,25-15 M298.3,664.7c5-15.7,19.3-40.6,48.5-54.2c29.2-13.6,44.2-25,62-37.8c17.8-12.8,56.3-33.5,97-32.8
			c11.4,1.4,22.1-10,22.1-10 M475.8,478.6c0,0,10-5.7,22.8,5.7c12.8,11.4,20,24.2,20,24.2s18.5-15.7,39.2,0.7
			c20.7,16.4,33.5,32.1,33.5,32.1s21.4-1.4,32.8,2.1c0,0,31.4-4.3,44.2-5.7c12.8-1.4,25-3.6,37.1,7.8c12.1,11.4,15.7,12.8,27.1,19.3
			c11.4,6.4,42.8,22.1,59.9,66.3 M475.6,387.1c0,0,46.6,25.3,72.3,38.8c25.7,13.6,57.8,23.5,91.3,32.1
			c33.5,8.6,89.1,10.7,104.1,59.9 M523.6,155.7c-5.7,18.5-17.1,41.4-22.1,66.3c-5,25-12.8,55.6-26.4,76.3 M703.2,246.9
			c1.4-5,8.6-14.3,5.7-18.5c-2.9-4.3-2.9-11.4-19.3-37.8c-16.4-26.4-12.1-29.9-34.2-39.2c-22.1-9.3-58.5-7.1-73.4-4.3
			c-15,2.9-54.2,5.7-54.2,5.7l-4.3,2.9c-43.5-2.9-77-57-77-57l-2.9-5.7 M377.4,67.2c0,0,10.7,11.4,15.7,21.4 M388.8,79.4
			c0,0,12.8,7.1,15-3.6c2.1-10.7,0.7-14.3-1.4-25 M276.9-123.1c-20,4.3-54.2,22.1-77,69.9C177-5.5,157.8,56.5,158.5,71.5
			c0.7,15,6.4,20.7,6.4,20.7s2.1,20.7,25.7,29.2c0,0-10-34.2-0.7-46.3c0,0,9.3,18.5,26.4,21.4c0,0,1.4-2.1-1.4-7.1
			c-2.9-5-10.7-20-7.8-32.1c0,0,22.1,15,45.6,6.4c23.5-8.6,79.9-11.4,106.2,15.7c0,0,5.7,1.4,1.4-7.1c-1.6-3.2-6.5-11.4-16.3-21.5
			c0,0,13.4-9.9,37-7.7c23.5,2.1,37.8,19.3,48.5,31.4c10.7,12.1,14.3,18.5,14.3,18.5s28.5,15,33.5,27.8c5,12.8,6.5,18.3,6.5,18.3
			l9.3,6.4c0,0,3.4-22.6-5.8-39.7c-9.3-17.1-17.8-36.4-24.2-58.5c-6.4-22.1-5-46.3-25.7-61.3c-20.7-15-22.1-10-22.1-10
			s-47.8-96.3-105.5-93.4c0,0-19.3-12.8-17.1-7.1L276.9-123.1z M344,50.7c-16.4-17-46.5-39.4-97.1-51.9"/>
		<path class="st4" d="M422.1,356.5c0,0,0.8-4.5,4.6-6.5 M467.8,350.7c0,0,3.6,2.9,3.6,7.1"/>
		<path class="st4" d="M264.1,281.3c1.7,12.4,16.2,29,27.4,39.9c7.5,7.4,23.3,21.4,37.1,27.7"/>
		<path class="st2" d="M277.4,272c-1.7,1.1-3.4,2.3-5.1,3.8c-1.8,1.7-3,4.4-3.6,6c1.7,8.7,11.1,22,26,36.6
			c3.3,3.2,20,19.3,35.1,26.5c0.9-0.1,2.7-0.5,4.3-2.4c2.6-3.2,5.4-8.1,8.1-12.8c3.4-6,6.4-11.2,9.4-14c3.2-2.9,7.8-6.6,13-10.8
			c12.3-9.9,27.6-22.2,35.2-32.9c0,0,0,0,0-0.1H277.4z"/>
		<path class="st2" d="M372.5,209.2c-1.2-1.2-2.8-0.6-2.8-0.6s-2.2-2.2-3.4-3.5c-1.3-1.3-2.8-1.2-5.4-0.5
			c-30.2,8.5-44.9,28.9-46.4,30.8c-1.3,1.7-0.5,2.4-0.5,2.4c2.2,1.7,7.8,5.8,10.2,6.8c2.4,1,6.2,3,12,0.7
			c11.6-4.6,15.8-2.9,27.3,8.7c11.4,11.8,12.9,15.9,7.6,26.9c-2.7,5.5-0.8,9.3,0.2,11.7c1,2.4,4.8,8,6.5,10.3c0,0,0.6,0.9,2.4-0.3
			c2.1-1.4,23.7-14.6,34-43.6c0.9-2.5,1-4-0.2-5.2c-1.2-1.3-3.4-3.5-3.4-3.5s0.7-1.5-0.4-2.8C408.8,246.3,373.7,210.4,372.5,209.2"
			/>
		<path class="st8" d="M372.5,209.2c-1.2-1.2-2.8-0.6-2.8-0.6s-2.2-2.2-3.4-3.5c-1.3-1.3-2.8-1.2-5.4-0.5
			c-30.2,8.5-44.9,28.9-46.4,30.8c-1.3,1.7-0.5,2.4-0.5,2.4c2.2,1.7,7.8,5.8,10.2,6.8c2.4,1,6.2,3,12,0.7
			c11.6-4.6,15.8-2.9,27.3,8.7c11.4,11.8,12.9,15.9,7.6,26.9c-2.7,5.5-0.8,9.3,0.2,11.7c1,2.4,4.8,8,6.5,10.3c0,0,0.6,0.9,2.4-0.3
			c2.1-1.4,23.7-14.6,34-43.6c0.9-2.5,1-4-0.2-5.2c-1.2-1.3-3.4-3.5-3.4-3.5s0.7-1.5-0.4-2.8C408.8,246.3,373.7,210.4,372.5,209.2z"
			/>
		<path class="st2" d="M412,292c0,0-10.6-9-15-13.4c-4.4-4.4-7.2-9.7-13.5-12.3c-9.1-3.7-19.4-8.1-23.8-10.1c-4.4-2-6.6-2-10.3-2
			c-3.7,0-22.3,2.3-26.5,2.3c-4.2,0-6.9,5.9-3,10.1c3.9,4.2,13,2.8,21.3,3.8c0,0,10.8,5.4,15.9,8.3c0,0-7.6-0.7-12.5-1.7
			c-4.9-1-9.3-1-12.5-1h-31.4c-2.2,0-7.4,4.7-2.5,10.1c4.9,5.4,15,6.1,18.9,5.9c0,0,10.1,6.1,25.5,7.4c0,0,12.5,16.4,27.2,28.5
			c0,0-17.4,2.6-25.3,2.6c-7.8,0-13.5,5.9-15.2,9.1c-1.7,3.2-2.9,10.2,5.4,19.2c0,0-8.3,18.2,6.4,21.6c0,0,7.1,0.2,9.1-2.5
			c0,0,4.9,5.2,9.6,3.9c0,0,9.6,4.9,10.6,8.1c1,3.2,2.5,10.6,5.4,14"/>
		<path class="st4" d="M433.7,473.3c0,0,30-10,36-11.6 M417.7,507.5c0,0,7.1-3.2,8.9-5c0,0,29.6-2.5,34.2-3.9 M392.7,528.9l16-0.4
			 M370.8,425.7c0,0,11.2,9.1,14.4,11.2c3.2,2.1,20.3,1.1,27.3,1.1c6.9,0,27.8-4.8,40.1-5.4c12.3-0.5,20.3,0.5,24.1,2.1
			c3.8,1.6,3.2,12.5,3.8,16.8c0.5,4.3-2.7,8.6-10.7,10.2c0,0,9.6,12.7,5.3,25.5c-3.2,9.6-10.7,11.4-14.3,11.4c0,0,0,17.1-11.4,26.4
			c0,0-34.2,2.9-40.6,3.6c0,0-15,10-30,10c-15,0-28.5,0-39.2-1.4c-10.7-1.4-18.5-5.7-23.5-8.6c-5-2.9-8.6,0.7-15.7,5.7
			c-7.1,5-44,29.3-44,29.3s-37.5,4.1-35.2,24c-16.9,1-30.2-0.7-40.4-3.4 M334.9,358.9c0,0,5.4-1.2,9.8-3c4.4-1.7,10.8-2,15,0
			c4.2,2,13,4.4,13,4.4 M357.2,278.9l5.7,1c0,0,3.9,2.6,4.8,3.9c1,1.3,12.3,15.5,12.3,15.5s3.2,2.6,4.9,3.6 M412,292
			c0,0-10.6-9-15-13.4c-4.4-4.4-7.2-9.7-13.5-12.3c-9.1-3.7-19.4-8.1-23.8-10.1c-4.4-2-6.6-2-10.3-2c-3.7,0-22.3,2.3-26.5,2.3
			c-4.2,0-6.9,5.9-3,10.1c3.9,4.2,13,2.8,21.3,3.8c0,0,10.8,5.4,15.9,8.3c0,0-7.6-0.7-12.5-1.7c-4.9-1-9.3-1-12.5-1h-31.4
			c-2.2,0-7.4,4.7-2.5,10.1c4.9,5.4,15,6.1,18.9,5.9c0,0,10.1,6.1,25.5,7.4c0,0,12.5,16.4,27.2,28.5c0,0-17.4,2.6-25.3,2.6
			c-7.8,0-13.5,5.9-15.2,9.1c-1.7,3.2-2.9,10.2,5.4,19.2c0,0-8.3,18.2,6.4,21.6c0,0,7.1,0.2,9.1-2.5c0,0,4.9,5.2,9.6,3.9
			c0,0,9.6,4.9,10.6,8.1c1,3.2,2.5,10.6,5.4,14"/>
	</g>
	<path class="st9" d="M372.9,241.4L372.9,241.4c0,0.7,0.2,1.3,0.7,1.7c0.5,0.3,1.1-0.3,2.3,0.5c0.7,0.4,1,1,1.2,1.7
		c0.6,0.4,1.8,0.1,2.5-0.2c-0.4,0.7-0.8,1.8-0.4,2.5c0.7,0.2,1.2,0.6,1.6,1.3c0.7,1.3,0,1.8,0.3,2.3c0.3,0.5,0.9,0.8,1.6,0.9
		c0.5,0.1,1,0,1.5-0.2c0.5-0.2,1.1-0.5,1.6-1c0.7-0.6,1.2-1.3,1.4-2c0.9-2,1-4.7,1-6.9c0,0,0,0,0-0.1c-0.1-1.1-0.5-2.3-1.3-3.2l0,0
		c-0.8-0.9-1.9-1.5-3-1.7c0,0,0,0-0.1,0c-2.2-0.3-4.8-0.5-6.9,0.1c-0.7,0.2-1.5,0.6-2.2,1.2C373.5,239.4,372.9,240.5,372.9,241.4z
		 M382.8,239.6c0.5,0,1,0.1,1.5,0.4c1,0.6,1.5,1.7,1.3,2.8c0,0.2-0.1,0.4-0.1,0.6c-0.4,1-1.3,1.7-2.3,1.8c-0.5,0.1-0.8-0.5-0.6-0.9
		l0.3-0.7c0.1-0.1,0-0.3-0.1-0.4c-0.2-0.2-0.4-0.1-0.5,0.1l-0.8,1.6c-0.2,0.3-0.5,0.4-0.8,0.3c-0.3-0.2-0.4-0.5-0.3-0.8
		c0,0,0.2-0.4,0.2-0.4l0.6-1.2c0.4-0.8,0.3-1.7-0.2-2.4C381.4,239.8,382.1,239.6,382.8,239.6z M380.4,240.5c0.6,0.7,0.6,1.8-0.1,2.4
		c-0.7,0.6-1.8,0.6-2.4-0.1c-0.6-0.7-0.6-1.8,0.1-2.4C378.7,239.7,379.8,239.8,380.4,240.5z M376.7,248.3c-1.2,0.6-1.6,2.1-1.1,3.2
		c0.6,1.2,2.1,1.7,3.2,1.1c1.2-0.6,1.6-2.1,1.1-3.2C379.4,248.2,377.9,247.7,376.7,248.3z M375.5,244.3c-1.1-0.7-2.6-0.4-3.3,0.7
		c-0.7,1.1-0.4,2.6,0.7,3.3c1.1,0.7,2.6,0.4,3.3-0.7C376.9,246.5,376.5,245,375.5,244.3z M367.1,239.4c0.4-0.3,0.5-0.9,0.7-1.3
		c0.5-1.2,1.2-2.3,2.1-3.2c1.5-1.8,3.6-3.1,5.9-3.7c0.4-0.1,0.9-0.2,1.1-0.6c0.2-0.4,0.1-0.8-0.2-1.1c-0.6-0.6-1.8-0.2-2.5-0.1
		c-2.5,0.5-4.8,1.9-6.4,3.9c-0.7,0.9-1.3,2-1.6,3.1c-0.3,0.8-0.9,2.3-0.2,3C366.2,239.7,366.7,239.7,367.1,239.4z M383.7,259.1
		c0.6,0.7,2.2,0.3,3,0.1c1.1-0.3,2.2-0.7,3.2-1.3c2.2-1.3,3.8-3.5,4.6-5.9c0.2-0.7,0.7-1.9,0.2-2.5c-0.3-0.3-0.7-0.4-1.1-0.3
		c-0.5,0.2-0.6,0.6-0.7,1.1c-0.9,2.2-2.4,4.1-4.3,5.4c-1,0.7-2.2,1.3-3.4,1.7c-0.4,0.1-1,0.2-1.3,0.5
		C383.4,258.2,383.4,258.8,383.7,259.1z"/>
</g>
</svg>
